<svg width="1440" height="2561" viewBox="0 0 1440 2561" fill="none" xmlns="http://www.w3.org/2000/svg">
<path d="M1440 741.633L1440 2450.5L0.000366211 2450.5L0.000213198 11.8002C51.2779 -8.90857 178.206 -17.0311 275.694 116.148C397.554 282.621 471.152 240.401 657.562 280.813C843.972 321.226 828.89 514.24 900.076 558.874C971.261 603.508 997.805 585.413 1189.04 603.508C1342.03 617.984 1420.09 701.623 1440 741.633Z" fill="#F6F8FC"/>
<path d="M0.000237383 1698.45L0 2647L1440 2647L1440 1232.53C1388.72 1219.31 1261.79 1214.13 1164.31 1299.15C1042.45 1405.42 968.848 1378.47 782.438 1404.27C596.029 1430.06 611.11 1553.28 539.925 1581.78C468.739 1610.27 442.195 1598.72 250.96 1610.27C97.9709 1619.51 19.9081 1672.9 0.000237383 1698.45Z" fill="white"/>
</svg>
