<svg width="1440" height="1317" viewBox="0 0 1440 1317" fill="none" xmlns="http://www.w3.org/2000/svg">
<path d="M0 718.37V0H1440V1248.2C1440 1294 1261.79 1377.03 1164.31 1243.85C1042.45 1077.38 968.848 1119.6 782.438 1079.19C596.029 1038.78 611.11 945.763 539.925 901.129C468.739 856.495 442.195 874.59 250.959 856.495C97.9707 842.019 19.9078 758.38 0 718.37Z" fill="url(#paint0_linear_197_8)"/>
<path d="M788 225C683.6 197 636.833 66.6667 626.5 5H1439V582.5C1430.83 619.167 1386.3 682.3 1273.5 641.5C1132.5 590.5 1263.5 315 1169.5 243.5C1075.5 172 918.5 260 788 225Z" fill="url(#paint1_linear_197_8)"/>
<defs>
<linearGradient id="paint0_linear_197_8" x1="4.29231e-05" y1="54" x2="1397.5" y2="1449" gradientUnits="userSpaceOnUse">
<stop stop-color="#3CB2B8"/>
<stop offset="1" stop-color="#61D5DB" stop-opacity="0.3"/>
</linearGradient>
<linearGradient id="paint1_linear_197_8" x1="722.5" y1="609" x2="1439" y2="4.99999" gradientUnits="userSpaceOnUse">
<stop stop-color="white" stop-opacity="0.14"/>
<stop offset="1" stop-color="white" stop-opacity="0"/>
</linearGradient>
</defs>
</svg>
