<svg width="1440" height="3320" viewBox="0 0 1440 3320" fill="none" xmlns="http://www.w3.org/2000/svg">
<path d="M1440 741.633L1440 2450.5L0.000366211 2450.5L0.000213198 11.8002C51.2779 -8.90857 178.206 -17.0311 275.694 116.148C397.554 282.621 471.152 240.401 657.562 280.813C843.972 321.226 828.89 514.24 900.076 558.874C971.261 603.508 997.805 585.413 1189.04 603.508C1342.03 617.984 1420.09 701.623 1440 741.633Z" fill="#F6F8FC"/>
<path d="M0.000481524 2371.45L0.000244141 3320L1440 3320L1440 1905.53C1388.72 1892.31 1261.8 1887.13 1164.31 1972.15C1042.45 2078.42 968.848 2051.47 782.438 2077.27C596.029 2103.06 611.111 2226.28 539.925 2254.78C468.739 2283.27 442.196 2271.72 250.96 2283.27C97.9711 2292.51 19.9083 2345.9 0.000481524 2371.45Z" fill="white"/>
</svg>
