<svg width="1079" height="593" viewBox="0 0 1079 593" fill="none" xmlns="http://www.w3.org/2000/svg">
<path opacity="0.8" d="M380.563 159.576C378.533 151.257 370.707 145.057 361.331 145.057C359.654 145.057 357.982 145.259 356.351 145.66C351.722 136.271 341.683 129.765 330.038 129.765C327.114 129.762 324.205 130.181 321.396 131.01C315.127 121.159 303.738 114.574 290.729 114.574C275.25 114.574 262.068 123.894 257.074 136.943C253.379 135.001 249.283 133.993 245.13 134.004C231.563 134.004 220.563 144.44 220.563 157.316C220.565 158.071 220.604 158.825 220.681 159.576H380.563Z" fill="white"/>
<path opacity="0.8" d="M349.449 38.4696C351.168 31.3679 357.863 26.072 365.869 26.072C367.301 26.0693 368.728 26.2392 370.122 26.578C374.073 18.5613 382.64 13.0089 392.591 13.0089C395.087 13.0061 397.571 13.3619 399.97 14.066C405.326 5.65771 415.05 0.0325317 426.158 0.0325317C439.377 0.0325317 450.634 8.00414 454.9 19.1367C458.055 17.4767 461.552 16.6162 465.098 16.6274C476.683 16.6274 486.076 25.5382 486.076 36.5321C486.074 37.177 486.04 37.8214 485.974 38.4626L349.449 38.4696Z" fill="white"/>
<path opacity="0.8" d="M503.835 147.986C504.803 143.993 508.572 141.016 513.065 141.016C513.871 141.015 514.674 141.112 515.457 141.307C517.677 136.801 522.495 133.682 528.084 133.682C529.488 133.68 530.886 133.881 532.236 134.278C535.243 129.55 540.694 126.39 546.954 126.39C554.397 126.39 560.711 130.864 563.109 137.134C564.883 136.201 566.848 135.718 568.841 135.723C575.354 135.723 580.632 140.732 580.632 146.911C580.633 147.274 580.615 147.636 580.578 147.996L503.835 147.986Z" fill="white"/>
<path opacity="0.8" d="M720.318 176.306C721.824 170.067 727.697 165.43 734.721 165.43C735.975 165.429 737.224 165.58 738.443 165.88C741.911 158.848 749.429 153.975 758.151 153.975C760.341 153.972 762.52 154.286 764.624 154.907C769.32 147.528 777.85 142.596 787.594 142.596C799.186 142.596 809.062 149.58 812.804 159.354C815.57 157.897 818.637 157.141 821.747 157.15C831.897 157.15 840.146 164.969 840.146 174.611C840.146 175.177 840.116 175.743 840.058 176.306H720.318Z" fill="white"/>
<g style="mix-blend-mode:multiply" opacity="0.5">
<path d="M995.869 410.98H968.185V353.404H952.736V379.041H930.693V370.789V319.971H894.606V373.984L883.812 374.331V319.871H871.216V296.663H863.661V281.073H834.154V296.663H826.595V319.871H814.002V349.373L808.189 349.719L806.443 262.316H767.581V308.811L753.905 309.158V236.488H749.229V221.151H708.205V236.488H703.529V321.725H694.891V303.883H687.695V288.952H677.26V245.364H662.146V288.952H651.712V303.883H644.515V333.409L635.518 333.357V295.641L549.437 298.396L529.004 347.782H520.008V330.116H497.603V211.086H477.085V223.557H467.724V320.356H435.327V338.022H407.857V296.667L364.454 295.686V355.542L360.495 355.594H355.454V303.931H348.258V289H337.816V245.413H322.699V289H312.261V303.931H305.061V334.466H296.42V236.533H291.741V221.2H250.706V236.533H246.027V309.206L232.348 308.86V262.364H210.433L210.081 349.768L203.906 349.418V261.172H173.313V237.964H165.755V222.378H136.238V237.964H128.679V319.916H116.079V374.379L105.279 374.033V320.02L69.1811 355.75V370.834V379.09H45.1079V560.173L526.081 560.149L995.869 560.125V410.98Z" fill="#C5DDF9"/>
</g>
<path d="M711.396 545.717C580.89 531.351 417.452 391.851 306.621 375.579C189.75 358.422 69.6211 549.505 69.6211 549.505L711.396 547.852V545.717Z" fill="#86B1F2"/>
<path d="M272.807 401.396H267.018V467.131H272.807V401.396Z" fill="#355389"/>
<path d="M269.914 273.875L251.014 430.312H288.811L269.914 273.875Z" fill="#3C8F7C"/>
<path d="M257.869 373.572L284.815 397.244L283.78 388.666L258.708 366.644L257.869 373.572Z" fill="#50BFA5"/>
<path d="M262.01 339.284L278.511 345.061L277.736 338.639L262.724 333.381L262.01 339.284Z" fill="#50BFA5"/>
<path d="M328.654 418.369H323.464V467.779H328.654V418.369Z" fill="#355389"/>
<path d="M326.78 330.272L313.215 430.008H340.344L326.78 330.272Z" fill="#3C8F7C"/>
<path d="M314.078 423.679L338.415 415.821L338.046 413.115L314.477 420.726L314.078 423.679Z" fill="#50BFA5"/>
<path d="M318.362 392.173L334.491 386.964L334.122 384.261L318.764 389.22L318.362 392.173Z" fill="#50BFA5"/>
<path d="M1030.24 463.315L1034.43 454.487C1037.42 447.878 1034.91 440.187 1028.84 437.307C1013.54 430.049 995.033 437.653 987.508 454.321L982.007 466.493C979.595 471.827 974.739 475.158 969.634 475.55C964.998 475.896 960.837 479.064 958.807 483.591L955.904 490.009C954.374 493.387 953.577 497.064 953.567 500.787C953.557 504.511 954.335 508.192 955.846 511.578C956.752 513.64 957.211 515.879 957.191 518.14C957.17 520.401 956.671 522.631 955.728 524.676L951.624 533.763C947.083 543.814 950.886 555.505 960.119 559.882L965.387 562.381C974.621 566.759 985.786 562.163 990.327 552.115C994.546 538.706 1001.53 533.122 1007.66 530.945C1012.2 529.317 1016.37 526.771 1019.93 523.457C1023.48 520.144 1026.36 516.131 1028.37 511.658L1028.95 510.375C1031.08 505.674 1032.21 500.561 1032.26 495.377C1032.31 490.194 1031.28 485.059 1029.24 480.315C1027.43 476.163 1026.97 470.562 1030.24 463.315Z" fill="#96D9C9"/>
<path d="M33.7839 463.221L29.5884 454.39C26.6042 447.781 29.1046 440.09 35.1779 437.21C50.4812 429.952 68.9852 437.556 76.51 454.224L82.0115 466.403C84.4239 471.737 89.2825 475.068 94.3847 475.46C99.0234 475.823 103.182 478.974 105.229 483.504L108.128 489.919C109.658 493.297 110.455 496.974 110.465 500.697C110.475 504.42 109.697 508.102 108.186 511.488C107.28 513.55 106.822 515.789 106.842 518.05C106.863 520.311 107.361 522.541 108.304 524.585L112.412 533.673C116.949 543.724 113.146 555.415 103.912 559.792L98.6445 562.291C89.4111 566.669 78.2457 562.073 73.7051 552.025C69.486 538.616 62.5025 533.032 56.3751 530.855C51.8366 529.228 47.6642 526.681 44.1063 523.368C40.5483 520.054 37.6776 516.041 35.6651 511.568L35.0831 510.285C32.9534 505.583 31.8258 500.47 31.7757 495.287C31.7255 490.104 32.7538 484.969 34.7922 480.225C36.582 476.066 37.0557 470.462 33.7839 463.221Z" fill="#96D9C9"/>
<path d="M785.953 544.975H791.742V479.241H785.953V544.975Z" fill="#355389"/>
<path d="M788.846 351.723L807.743 508.161H769.95L788.846 351.723Z" fill="#3C8F7C"/>
<path d="M800.891 451.423L773.945 475.092L774.981 466.514L800.052 444.491L800.891 451.423Z" fill="#50BFA5"/>
<path d="M796.747 417.132L780.249 422.909L781.024 416.487L796.036 411.229L796.747 417.132Z" fill="#50BFA5"/>
<path d="M744.523 545.627H749.713V496.217H744.523V545.627Z" fill="#355389"/>
<path d="M746.401 408.12L759.965 507.855H732.836L746.401 408.12Z" fill="#3C8F7C"/>
<path d="M759.102 501.527L734.765 493.67L735.134 490.963L758.703 498.574L759.102 501.527Z" fill="#50BFA5"/>
<path d="M754.819 470.021L738.69 464.812L739.059 462.105L754.416 467.069L754.819 470.021Z" fill="#50BFA5"/>
<path d="M22.9971 564.114C22.9971 564.114 139.648 450.086 290.056 443.091C340.564 440.755 547.376 487.892 721.529 524.942C728.851 526.499 911.374 564.437 936.225 565.563L22.9971 564.114Z" fill="#96D9C9"/>
<path d="M837.987 564.904C837.987 564.904 868.462 523.438 887.636 517.075C906.81 510.711 888.739 535.971 888.739 535.971C888.739 535.971 922.759 497.867 935.241 501.312C946.687 504.462 935.241 528.079 935.241 528.079C935.241 528.079 948.132 515.002 963.76 515.002C979.388 515.002 951.681 563.976 951.681 563.976L837.987 564.904Z" fill="#50BFA5"/>
<path d="M936.239 564.672C936.239 564.672 957.068 507.606 982.866 514.205C1003.77 519.553 988.909 548.265 990.181 546.961C991.454 545.658 1002.67 526.166 1020.81 526.166C1038.95 526.166 1015.24 552.469 1015.24 552.469C1015.24 552.469 1053.9 540.102 1056.92 553.089C1059.43 563.865 1045.39 564.672 1045.39 564.672H936.239Z" fill="#3C8F7C"/>
<path d="M162.764 564.904C162.764 564.904 132.293 523.438 113.115 517.075C93.9378 510.711 112.012 535.971 112.012 535.971C112.012 535.971 78.9052 489.701 66.4203 493.136C54.9775 496.283 59.6365 519.653 59.6365 519.653C59.6365 519.653 52.6226 514.992 36.9911 514.992C21.3596 514.992 49.0734 563.965 49.0734 563.965L162.764 564.904Z" fill="#50BFA5"/>
<path d="M89.1197 564.672C89.1197 564.672 74.1716 523.719 55.6574 528.454C40.6552 532.294 51.3198 552.899 50.4063 551.959C49.4928 551.02 41.4436 537.056 28.4139 537.056C15.3843 537.056 32.4132 555.931 32.4132 555.931C32.4132 555.931 4.66894 547.059 2.50016 556.375C0.696783 564.111 10.7794 564.693 10.7794 564.693L89.1197 564.672Z" fill="#3C8F7C"/>
<path d="M186.001 552.056C186.139 551.218 186.208 550.369 186.208 549.519C186.208 539.908 177.411 532.117 166.567 532.117C155.723 532.117 146.943 539.908 146.943 549.519C146.942 550.37 147.013 551.218 147.153 552.056H186.001Z" fill="#3C8F7C"/>
<path d="M208.227 547.779C208.367 546.593 208.437 545.398 208.437 544.203C208.437 530.647 199.64 519.66 188.813 519.66C177.986 519.66 169.189 530.647 169.189 544.203C169.189 545.398 169.258 546.592 169.395 547.779H208.227Z" fill="#50BFA5"/>
<path d="M201.037 562.818C200.897 561.98 200.827 561.131 200.828 560.281C200.828 550.67 209.625 542.879 220.452 542.879C231.279 542.879 240.076 550.67 240.076 560.281C240.075 561.131 240.006 561.98 239.869 562.818H201.037Z" fill="#50BFA5"/>
<path d="M169.605 562.818C169.428 561.634 169.34 560.439 169.341 559.241C169.341 545.686 180.486 534.699 194.24 534.699C207.994 534.699 219.135 545.686 219.135 559.241C219.136 560.438 219.049 561.634 218.875 562.818H169.605Z" fill="#3C8F7C"/>
<path d="M188.722 534.699C181.847 534.699 175.709 538.186 171.656 543.651C169.517 543.135 167.327 542.875 165.129 542.879C152.928 542.879 143.035 550.67 143.035 560.281C143.036 561.132 143.114 561.982 143.269 562.818H210.579C210.737 561.633 210.816 560.438 210.816 559.241C210.829 545.686 200.922 534.699 188.722 534.699Z" fill="#50BFA5"/>
<path d="M103.574 511.113C97.7915 501.859 96.7122 490.689 96.8272 482.942C96.8827 477.976 97.436 473.028 98.4783 468.178L98.0622 468.029C97.0084 472.912 96.4494 477.893 96.3941 482.894C96.2791 490.713 97.3685 502.005 103.222 511.37L103.574 511.113Z" fill="#3C8F7C"/>
<path d="M99.9095 466.653C99.8672 467.509 99.6548 468.347 99.2854 469.117C98.916 469.886 98.3973 470.57 97.761 471.127C96.6901 469.687 96.1778 467.892 96.323 466.088C96.3658 465.231 96.5784 464.392 96.9477 463.622C97.3171 462.853 97.8355 462.168 98.4715 461.61C99.5426 463.051 100.055 464.847 99.9095 466.653Z" fill="#3C8F7C"/>
<path d="M96.0019 471.044C96.9384 472.577 97.2846 474.411 96.973 476.191C95.3129 475.734 93.8969 474.622 93.0346 473.099C92.0993 471.566 91.7544 469.732 92.067 467.952C93.7256 468.41 95.1401 469.522 96.0019 471.044Z" fill="#3C8F7C"/>
<path d="M93.7888 476.212C95.2571 477.192 96.3106 478.703 96.7391 480.443C95.9477 480.653 95.1215 480.686 94.3165 480.54C93.5116 480.394 92.7466 480.073 92.0734 479.598C90.6034 478.617 89.5486 477.105 89.1196 475.362C89.912 475.154 90.7386 475.123 91.544 475.269C92.3493 475.416 93.1147 475.737 93.7888 476.212Z" fill="#3C8F7C"/>
<path d="M94.4692 483.407C95.0678 483.831 95.5704 484.382 95.9428 485.022C96.3153 485.663 96.5489 486.378 96.6279 487.119C96.0066 487.401 95.3261 487.52 94.6486 487.463C93.9711 487.406 93.3185 487.175 92.7505 486.793C92.1525 486.369 91.6506 485.818 91.2787 485.177C90.9069 484.537 90.6738 483.822 90.5952 483.081C91.216 482.799 91.896 482.681 92.5728 482.738C93.2496 482.795 93.9016 483.025 94.4692 483.407Z" fill="#3C8F7C"/>
<path d="M99.4528 474.881C100.088 474.528 100.791 474.323 101.512 474.28C102.233 474.237 102.954 474.357 103.625 474.631C103.452 475.365 103.13 476.052 102.679 476.649C102.229 477.247 101.661 477.74 101.013 478.097C100.378 478.45 99.6746 478.655 98.9535 478.697C98.2324 478.74 97.5111 478.619 96.8408 478.343C97.0151 477.611 97.3376 476.924 97.7876 476.328C98.2376 475.731 98.8049 475.238 99.4528 474.881Z" fill="#3C8F7C"/>
<path d="M99.3039 479.851C99.9389 479.499 100.642 479.294 101.363 479.251C102.084 479.207 102.805 479.327 103.476 479.601C103.302 480.335 102.98 481.022 102.53 481.619C102.08 482.217 101.512 482.71 100.864 483.067C100.229 483.42 99.5257 483.625 98.8046 483.667C98.0835 483.71 97.3622 483.589 96.6919 483.313C96.8655 482.581 97.1879 481.894 97.6379 481.297C98.088 480.701 98.6556 480.208 99.3039 479.851Z" fill="#3C8F7C"/>
<path d="M95.342 491.313C95.6935 491.403 96.0233 491.566 96.3108 491.792C96.5983 492.018 96.8374 492.302 97.0134 492.626C96.7544 492.85 96.4478 493.009 96.1182 493.089C95.7886 493.17 95.4451 493.171 95.1153 493.091C94.7636 493.002 94.4336 492.84 94.146 492.614C93.8584 492.389 93.6193 492.105 93.4438 491.78C93.7032 491.557 94.0097 491.399 94.3391 491.317C94.6685 491.236 95.0118 491.235 95.342 491.313Z" fill="#3C8F7C"/>
<path d="M101.205 517.664C87.9761 514.42 77.8833 504.396 71.7491 496.556C67.7551 491.476 64.3131 485.965 61.4838 480.121L60.9458 480.405C63.7936 486.29 67.2583 491.839 71.2788 496.955C77.4705 504.875 87.6682 515.002 101.053 518.281L101.205 517.664Z" fill="#3C8F7C"/>
<path d="M61.653 477.113C62.3152 478.074 62.7857 479.16 63.0377 480.308C63.2896 481.455 63.3181 482.643 63.1214 483.802C62.0147 483.639 60.9537 483.24 60.0067 482.631C59.0597 482.022 58.2478 481.217 57.6233 480.267C56.2862 478.325 55.7568 475.919 56.1515 473.578C57.2581 473.742 58.319 474.142 59.2663 474.751C60.2136 475.359 61.0265 476.164 61.653 477.113Z" fill="#3C8F7C"/>
<path d="M61.2977 485.538C62.3835 485.827 63.3993 486.342 64.281 487.053C65.1626 487.763 65.891 488.653 66.4202 489.666C65.4762 490.283 64.4164 490.691 63.3092 490.863C62.202 491.035 61.0718 490.967 59.9917 490.664C58.9055 490.376 57.8895 489.86 57.0079 489.149C56.1262 488.437 55.398 487.547 54.8691 486.533C55.8137 485.917 56.8736 485.511 57.9807 485.339C59.0878 485.168 60.2177 485.236 61.2977 485.538Z" fill="#3C8F7C"/>
<path d="M63.2605 492.987C64.341 492.711 65.4662 492.672 66.5624 492.873C67.6586 493.073 68.701 493.509 69.6213 494.151C69.0394 495.15 68.2665 496.018 67.349 496.704C66.4316 497.389 65.3885 497.878 64.2823 498.14C63.2017 498.415 62.0766 498.454 60.9806 498.253C59.8845 498.053 58.8421 497.617 57.9214 496.976C58.5029 495.977 59.2756 495.108 60.1931 494.423C61.1106 493.737 62.154 493.249 63.2605 492.987Z" fill="#3C8F7C"/>
<path d="M68.5315 499.756C69.612 499.481 70.7371 499.442 71.8331 499.643C72.9292 499.844 73.9716 500.279 74.8923 500.92C74.3104 501.919 73.5375 502.787 72.6201 503.473C71.7026 504.158 70.6595 504.647 69.5533 504.909C68.4728 505.185 67.3475 505.224 66.2513 505.023C65.1551 504.823 64.1127 504.387 63.1924 503.745C63.7744 502.746 64.5472 501.878 65.4647 501.192C66.3821 500.507 67.4252 500.018 68.5315 499.756Z" fill="#3C8F7C"/>
<path d="M66.955 488.502C66.8288 486.32 67.5007 484.169 68.8396 482.468C69.5938 483.163 70.2022 484.008 70.6279 484.952C71.0536 485.896 71.2878 486.918 71.3162 487.958C71.4395 490.139 70.7679 492.289 69.4317 493.992C68.6775 493.296 68.0691 492.451 67.6433 491.507C67.2176 490.563 66.9834 489.541 66.955 488.502Z" fill="#3C8F7C"/>
<path d="M72.4465 495.517C72.2882 493.335 72.9287 491.172 74.2431 489.448C75.0072 490.13 75.6277 490.964 76.0669 491.899C76.5061 492.835 76.7547 493.852 76.7976 494.889C76.9558 497.071 76.3153 499.234 75.001 500.958C74.2375 500.276 73.6174 499.442 73.1782 498.506C72.7391 497.571 72.4902 496.554 72.4465 495.517Z" fill="#3C8F7C"/>
<path d="M76.997 506.434C77.3935 506.165 77.8428 505.988 78.3134 505.915C78.7839 505.843 79.2643 505.877 79.7206 506.015C79.6406 506.506 79.4622 506.976 79.1967 507.393C78.9312 507.811 78.5843 508.168 78.1778 508.441C77.7811 508.71 77.3318 508.887 76.8613 508.96C76.3908 509.032 75.9105 508.998 75.4541 508.861C75.5342 508.369 75.7125 507.9 75.978 507.482C76.2435 507.065 76.5904 506.708 76.997 506.434Z" fill="#3C8F7C"/>
<path d="M136.221 536.806L136.793 536.768C135.97 521.265 141.529 506.677 146.331 497.17C151.544 486.852 157.029 480.121 157.083 480.055L156.664 479.615C156.606 479.681 151.088 486.457 145.837 496.834C140.991 506.421 135.378 521.137 136.221 536.806Z" fill="#3C8F7C"/>
<path d="M159.567 479.168C158.261 481.421 156.383 482.821 154.491 483.206C154.169 480.693 154.679 478.142 155.94 475.962C157.249 473.709 159.123 472.309 161.015 471.928C161.336 474.439 160.826 476.988 159.567 479.168Z" fill="#3C8F7C"/>
<path d="M152.58 481.868C152.703 484.385 151.987 486.869 150.55 488.914C149.105 487.41 148.144 485.064 148.05 482.329C147.925 479.812 148.641 477.327 150.08 475.283C151.524 476.801 152.489 479.147 152.58 481.868Z" fill="#3C8F7C"/>
<path d="M147.004 486.713C148.045 488.994 148.298 491.569 147.721 494.016C145.86 493.524 144.132 492.023 143.056 489.704C142.017 487.423 141.765 484.849 142.342 482.402C144.199 482.89 145.928 484.391 147.004 486.713Z" fill="#3C8F7C"/>
<path d="M143.16 498.636C143.66 499.559 143.838 500.629 143.664 501.669C143.221 501.571 142.805 501.373 142.446 501.089C142.088 500.806 141.795 500.444 141.59 500.029C141.091 499.107 140.913 498.037 141.086 496.997C141.529 497.095 141.945 497.293 142.304 497.576C142.663 497.86 142.955 498.222 143.16 498.636Z" fill="#3C8F7C"/>
<path d="M141.523 502.896C142.022 503.82 142.198 504.891 142.023 505.932C141.58 505.834 141.164 505.635 140.805 505.351C140.446 505.067 140.154 504.704 139.949 504.289C139.45 503.366 139.274 502.296 139.449 501.256C139.892 501.354 140.308 501.552 140.666 501.836C141.025 502.119 141.318 502.482 141.523 502.896Z" fill="#3C8F7C"/>
<path d="M154.092 489.029C155.032 489.051 155.953 489.298 156.782 489.751C157.612 490.205 158.325 490.851 158.866 491.638C158.267 492.406 157.508 493.025 156.644 493.452C155.781 493.878 154.834 494.101 153.876 494.103C152.936 494.081 152.015 493.833 151.185 493.38C150.356 492.926 149.642 492.28 149.102 491.493C149.7 490.726 150.46 490.106 151.323 489.679C152.187 489.253 153.133 489.03 154.092 489.029Z" fill="#3C8F7C"/>
<path d="M150.922 495.073C151.862 495.094 152.784 495.341 153.614 495.795C154.444 496.248 155.158 496.895 155.699 497.683C155.1 498.45 154.341 499.07 153.477 499.496C152.614 499.923 151.667 500.145 150.709 500.147C149.769 500.125 148.847 499.878 148.018 499.425C147.189 498.971 146.475 498.325 145.935 497.537C146.531 496.769 147.29 496.148 148.153 495.721C149.017 495.295 149.963 495.073 150.922 495.073Z" fill="#3C8F7C"/>
<path d="M145.681 503.308C146.292 503.323 146.892 503.484 147.431 503.779C147.971 504.074 148.435 504.494 148.787 505.006C148.397 505.507 147.901 505.911 147.337 506.189C146.772 506.466 146.155 506.609 145.529 506.608C144.917 506.594 144.317 506.433 143.777 506.138C143.237 505.843 142.772 505.422 142.419 504.909C142.81 504.408 143.306 504.003 143.871 503.726C144.436 503.449 145.055 503.306 145.681 503.308Z" fill="#3C8F7C"/>
<path d="M86.8801 562.225C86.8801 559.647 102.106 562.693 103.361 559.175C104.616 555.657 90.3312 555.456 90.3312 550.701C90.3312 545.946 97.6157 549.28 101.886 549.28C106.156 549.28 93.4541 547.242 93.4541 545.561C93.4541 543.88 97.9101 544.761 97.9101 542.972C97.9101 541.184 74.5001 539.836 77.2406 535.462C79.9812 531.088 92.5642 536.737 96.0221 534.474C99.48 532.21 77.5587 529.739 77.0173 526.374C76.476 523.008 93.1665 529.258 95.5315 526.838C97.8966 524.419 69.1407 515.713 70.3418 509.318C71.5429 502.923 92.1379 517.508 97.2875 515.938C102.437 514.368 71.3264 491.916 78.5568 483.171C85.7872 474.427 99.5883 512.122 104.298 510.777C109.008 509.432 98.3973 486.953 103.209 483.05C108.02 479.147 121.817 514.697 122.704 521.996C123.59 529.296 125.326 506.292 132.885 503.599C140.443 500.906 133.105 517.851 134.421 523.008C135.737 528.166 141.864 509.769 150.137 511.113C158.409 512.458 135.185 529.292 137.486 534.228C139.787 539.163 157.719 517.747 163.336 523.483C168.952 529.219 141.739 545.215 143.228 549.585C144.717 553.956 161.045 546.466 165.748 551.283C170.451 556.101 148.205 559.158 145.255 559.158C142.304 559.158 131.044 562.971 142.044 562.208C153.043 561.446 86.8801 564.807 86.8801 562.225Z" fill="#3C8F7C"/>
<path d="M130.246 565.209C130.246 565.209 148.567 566.214 153.903 562.783C159.238 559.352 155.026 556.666 155.026 556.666C155.026 556.666 171.967 556.288 171.923 552.16C171.879 548.032 167.775 548.285 167.775 548.285C167.775 548.285 176.325 542.331 174.731 538.622C172.281 532.921 158.352 542.847 158.352 542.847C158.352 542.847 162.92 537.302 159.228 535.995C149.102 532.439 130.246 565.209 130.246 565.209Z" fill="#50BFA5"/>
<path d="M174.731 538.629C176.325 542.338 167.775 548.292 167.775 548.292C167.775 548.292 173.949 548.199 172.934 552.209C171.919 556.219 156.42 557.536 156.42 557.536C156.42 557.536 161.833 558.621 156.504 562.042C151.175 565.463 130.235 565.192 130.235 565.192L174.731 538.629Z" fill="#96D9C9"/>
<path d="M894.552 506.715C900.825 496.664 901.995 484.533 901.87 476.149C901.811 470.76 901.211 465.392 900.077 460.13L900.534 459.967C901.674 465.266 902.279 470.671 902.34 476.097C902.466 484.582 901.281 496.83 894.931 506.992L894.552 506.715Z" fill="#3C8F7C"/>
<path d="M898.534 458.463C898.58 459.391 898.81 460.301 899.211 461.135C899.612 461.969 900.175 462.711 900.865 463.315C902.025 461.751 902.58 459.803 902.425 457.846C902.377 456.917 902.146 456.009 901.745 455.175C901.344 454.34 900.782 453.598 900.093 452.993C898.93 454.555 898.374 456.504 898.534 458.463Z" fill="#3C8F7C"/>
<path d="M902.774 463.225C901.757 464.895 901.385 466.893 901.728 468.829C903.528 468.334 905.063 467.129 905.998 465.478C907.014 463.814 907.389 461.822 907.05 459.891C905.251 460.381 903.714 461.579 902.774 463.225Z" fill="#3C8F7C"/>
<path d="M905.176 468.829C903.582 469.894 902.438 471.535 901.972 473.425C902.833 473.653 903.731 473.689 904.607 473.53C905.482 473.372 906.314 473.023 907.047 472.507C908.64 471.441 909.783 469.8 910.251 467.911C909.39 467.682 908.491 467.646 907.616 467.804C906.74 467.963 905.908 468.312 905.176 468.829Z" fill="#3C8F7C"/>
<path d="M904.435 476.641C903.786 477.102 903.242 477.7 902.838 478.395C902.434 479.09 902.18 479.865 902.093 480.669C902.766 480.977 903.504 481.106 904.239 481.046C904.974 480.985 905.682 480.736 906.299 480.322C906.948 479.862 907.492 479.264 907.896 478.569C908.3 477.874 908.554 477.099 908.64 476.295C907.967 475.988 907.229 475.86 906.494 475.92C905.76 475.981 905.052 476.229 904.435 476.641Z" fill="#3C8F7C"/>
<path d="M899.021 467.391C898.333 467.007 897.571 466.784 896.789 466.738C896.007 466.691 895.224 466.822 894.498 467.12C894.685 467.917 895.034 468.663 895.522 469.312C896.01 469.96 896.626 470.496 897.33 470.885C898.018 471.267 898.78 471.489 899.562 471.535C900.344 471.581 901.126 471.45 901.853 471.151C901.666 470.356 901.317 469.61 900.829 468.962C900.341 468.314 899.725 467.778 899.021 467.391Z" fill="#3C8F7C"/>
<path d="M899.19 472.784C898.502 472.4 897.74 472.177 896.958 472.13C896.176 472.084 895.393 472.215 894.667 472.513C894.854 473.309 895.203 474.055 895.691 474.703C896.179 475.351 896.795 475.887 897.498 476.274C898.187 476.658 898.95 476.881 899.732 476.927C900.515 476.974 901.298 476.843 902.025 476.544C901.838 475.749 901.488 475.002 900.999 474.354C900.511 473.706 899.894 473.171 899.19 472.784Z" fill="#3C8F7C"/>
<path d="M903.487 485.219C903.106 485.317 902.749 485.494 902.437 485.739C902.126 485.984 901.867 486.292 901.677 486.644C901.962 486.887 902.298 487.058 902.659 487.143C903.02 487.228 903.395 487.226 903.755 487.136C904.136 487.039 904.494 486.862 904.806 486.617C905.118 486.372 905.377 486.064 905.568 485.712C905.283 485.468 904.946 485.297 904.585 485.212C904.224 485.126 903.848 485.129 903.487 485.219Z" fill="#3C8F7C"/>
<path d="M897.137 513.806C911.493 510.292 922.441 499.416 929.1 490.907C933.432 485.395 937.166 479.417 940.235 473.078L940.82 473.383C937.73 479.768 933.972 485.789 929.611 491.34C922.888 499.932 911.828 510.919 897.292 514.479L897.137 513.806Z" fill="#3C8F7C"/>
<path d="M940.042 469.813C938.591 471.92 938.017 474.531 938.445 477.071C939.646 476.893 940.798 476.46 941.826 475.799C942.854 475.137 943.735 474.262 944.413 473.231C945.132 472.188 945.644 471.01 945.918 469.765C946.192 468.52 946.223 467.231 946.01 465.973C944.809 466.152 943.658 466.587 942.63 467.248C941.603 467.909 940.721 468.783 940.042 469.813Z" fill="#3C8F7C"/>
<path d="M940.424 478.957C939.246 479.269 938.144 479.828 937.188 480.599C936.232 481.37 935.442 482.335 934.869 483.435C935.892 484.101 937.04 484.542 938.239 484.727C939.438 484.913 940.662 484.84 941.832 484.512C943.01 484.201 944.113 483.642 945.07 482.871C946.027 482.1 946.817 481.134 947.391 480.034C946.367 479.368 945.218 478.927 944.019 478.742C942.819 478.556 941.595 478.629 940.424 478.957Z" fill="#3C8F7C"/>
<path d="M938.296 487.032C937.124 486.734 935.903 486.693 934.713 486.911C933.524 487.129 932.393 487.601 931.394 488.297C932.026 489.381 932.864 490.323 933.859 491.067C934.855 491.811 935.986 492.341 937.187 492.626C938.359 492.925 939.58 492.967 940.77 492.749C941.959 492.531 943.09 492.058 944.089 491.361C943.457 490.277 942.619 489.335 941.623 488.592C940.628 487.848 939.496 487.317 938.296 487.032Z" fill="#3C8F7C"/>
<path d="M932.578 494.38C931.405 494.081 930.184 494.039 928.995 494.257C927.806 494.475 926.674 494.948 925.676 495.645C926.307 496.729 927.145 497.671 928.141 498.414C929.136 499.157 930.268 499.687 931.468 499.97C932.64 500.27 933.86 500.312 935.049 500.095C936.238 499.878 937.369 499.405 938.367 498.709C937.737 497.625 936.899 496.682 935.904 495.939C934.909 495.195 933.778 494.664 932.578 494.38Z" fill="#3C8F7C"/>
<path d="M934.287 482.169C934.428 479.804 933.704 477.471 932.257 475.622C931.438 476.376 930.778 477.293 930.316 478.317C929.854 479.34 929.601 480.45 929.57 481.577C929.435 483.944 930.164 486.278 931.617 488.124C933.13 486.793 934.158 484.668 934.287 482.169Z" fill="#3C8F7C"/>
<path d="M928.322 489.767C928.492 487.401 927.799 485.054 926.376 483.182C924.83 484.485 923.768 486.592 923.602 489.074C923.432 491.44 924.126 493.787 925.551 495.659C927.104 494.37 928.159 492.266 928.322 489.767Z" fill="#3C8F7C"/>
<path d="M923.382 501.627C922.952 501.333 922.464 501.14 921.953 501.061C921.442 500.982 920.92 501.019 920.425 501.17C920.512 501.707 920.708 502.219 920.999 502.674C921.29 503.13 921.671 503.518 922.117 503.814C922.547 504.106 923.035 504.299 923.546 504.377C924.057 504.456 924.578 504.418 925.074 504.268C924.986 503.732 924.79 503.22 924.499 502.765C924.208 502.311 923.827 501.923 923.382 501.627Z" fill="#3C8F7C"/>
<path d="M859.137 534.581L858.518 534.536C859.411 517.716 853.382 501.891 848.168 491.559C842.511 480.367 836.563 473.065 836.502 472.992L836.959 472.514C837.02 472.586 843.008 479.934 848.699 491.195C853.961 501.61 860.041 517.581 859.137 534.581Z" fill="#3C8F7C"/>
<path d="M833.809 472.042C835.226 474.489 837.26 476.007 839.327 476.423C839.674 473.697 839.119 470.93 837.75 468.566C836.333 466.119 834.299 464.601 832.235 464.185C831.886 466.91 832.44 469.678 833.809 472.042Z" fill="#3C8F7C"/>
<path d="M841.388 474.971C841.255 477.701 842.032 480.397 843.59 482.617C845.157 480.984 846.202 478.437 846.297 475.484C846.43 472.753 845.652 470.056 844.091 467.838C842.518 469.47 841.503 472.018 841.388 474.971Z" fill="#3C8F7C"/>
<path d="M847.437 480.229C846.308 482.703 846.033 485.497 846.659 488.152C848.689 487.618 850.554 485.992 851.734 483.473C852.863 480.998 853.137 478.205 852.513 475.55C850.479 476.08 848.608 477.709 847.437 480.229Z" fill="#3C8F7C"/>
<path d="M851.592 493.15C851.05 494.152 850.858 495.313 851.048 496.442C851.528 496.335 851.979 496.119 852.369 495.811C852.758 495.503 853.075 495.11 853.298 494.661C853.839 493.659 854.032 492.497 853.842 491.368C853.362 491.475 852.91 491.691 852.521 491.999C852.132 492.307 851.815 492.7 851.592 493.15Z" fill="#3C8F7C"/>
<path d="M853.386 497.787C852.844 498.789 852.652 499.95 852.841 501.08C853.321 500.972 853.773 500.757 854.162 500.449C854.551 500.141 854.868 499.748 855.091 499.298C855.632 498.297 855.825 497.137 855.636 496.009C855.155 496.115 854.704 496.33 854.315 496.638C853.926 496.945 853.608 497.338 853.386 497.787Z" fill="#3C8F7C"/>
<path d="M839.75 482.741C838.73 482.764 837.729 483.032 836.828 483.524C835.928 484.016 835.153 484.718 834.566 485.573C835.215 486.406 836.039 487.078 836.976 487.541C837.913 488.003 838.94 488.244 839.98 488.245C841 488.223 842 487.955 842.9 487.463C843.8 486.971 844.574 486.269 845.16 485.414C844.511 484.581 843.688 483.909 842.752 483.446C841.815 482.984 840.789 482.743 839.75 482.741Z" fill="#3C8F7C"/>
<path d="M843.194 489.299C842.175 489.322 841.174 489.59 840.275 490.082C839.375 490.574 838.601 491.276 838.014 492.131C838.663 492.963 839.487 493.636 840.424 494.098C841.361 494.561 842.387 494.802 843.428 494.803C844.447 494.78 845.448 494.512 846.348 494.02C847.248 493.528 848.022 492.826 848.608 491.971C847.959 491.138 847.135 490.466 846.198 490.003C845.261 489.541 844.234 489.3 843.194 489.299Z" fill="#3C8F7C"/>
<path d="M848.875 498.234C848.209 498.247 847.556 498.421 846.968 498.742C846.38 499.062 845.875 499.52 845.492 500.078C845.915 500.619 846.451 501.055 847.06 501.355C847.67 501.655 848.338 501.811 849.014 501.811C849.68 501.798 850.333 501.624 850.921 501.303C851.509 500.983 852.014 500.525 852.397 499.967C851.974 499.426 851.438 498.99 850.829 498.69C850.219 498.39 849.551 498.234 848.875 498.234Z" fill="#3C8F7C"/>
<path d="M912.67 562.16C912.67 559.359 896.162 562.666 894.792 558.85C893.422 555.034 908.928 554.815 908.928 549.654C908.928 544.494 901.024 548.112 896.389 548.112C891.753 548.112 905.524 545.904 905.524 544.078C905.524 542.251 900.713 543.208 900.713 541.267C900.713 539.326 926.112 537.867 923.138 533.119C920.164 528.37 906.512 534.505 902.763 532.044C899.014 529.583 922.793 526.911 923.382 523.258C923.971 519.605 905.859 526.377 903.294 523.761C900.73 521.144 931.932 511.692 930.626 504.754C929.32 497.815 906.976 513.64 901.39 511.938C895.803 510.237 929.557 485.875 921.71 476.385C913.864 466.895 898.893 507.797 893.784 506.337C888.675 504.878 900.185 480.489 894.964 476.246C889.744 472.004 874.758 510.58 873.814 518.503C872.87 526.426 870.966 501.464 862.764 498.543C854.563 495.621 862.527 514.008 861.103 519.605C859.678 525.202 853.02 505.242 844.047 506.701C835.074 508.161 860.287 526.422 857.774 531.781C855.26 537.139 835.822 513.9 829.728 520.142C823.635 526.384 853.159 543.71 851.545 548.462C849.931 553.214 832.215 545.079 827.113 550.303C822.011 555.526 846.145 558.85 849.345 558.85C852.546 558.85 864.774 562.971 852.83 562.16C840.887 561.349 912.67 564.957 912.67 562.16Z" fill="#3C8F7C"/>
<path d="M865.62 565.393C865.62 565.393 845.742 566.485 839.953 562.752C834.164 559.019 838.735 556.115 838.735 556.115C838.735 556.115 820.353 555.706 820.4 551.263C820.448 546.819 824.9 547.059 824.9 547.059C824.9 547.059 815.623 540.598 817.355 536.574C820.015 530.387 835.125 541.16 835.125 541.16C835.125 541.16 830.172 535.132 834.174 533.725C845.16 529.829 865.62 565.393 865.62 565.393Z" fill="#50BFA5"/>
<path d="M817.355 536.557C815.623 540.581 824.9 547.041 824.9 547.041C824.9 547.041 818.205 546.951 819.291 551.287C820.377 555.623 837.223 557.068 837.223 557.068C837.223 557.068 831.346 558.246 837.132 561.979C842.917 565.712 865.634 565.393 865.634 565.393L817.355 536.557Z" fill="#3C8F7C"/>
<path d="M55.2447 401.466C55.2752 400.45 56.6421 399.663 57.3695 400.564C58.097 401.466 58.0462 400.856 58.7635 402.793C60.8414 408.402 63.6896 413.678 67.2221 418.462C73.8469 427.474 80.4175 432.038 87.8611 436.548C84.7923 429.467 82.7352 421.908 82.4747 414.283C82.3799 411.51 82.4307 408.623 83.5912 406.072C83.9296 405.358 85.1611 405.503 85.2829 406.297C85.9089 410.234 84.9886 413.201 86.2337 420.244C89.201 437.047 100.942 454.868 112.266 467.349C110.094 446.207 109.041 422.209 112.943 400.897C113.582 397.4 114.594 394.076 115.534 390.662C115.758 389.858 116.871 390.201 116.735 391.009C116.539 392.142 114.688 406.81 114.577 407.819C112.78 424.049 113.139 442.031 114.536 458.421C123.333 446.235 129.203 431.98 131.954 417.093C132.766 412.695 132.969 408.151 134.123 403.833C134.279 403.237 135.239 403.174 135.358 403.833C136.529 410.304 134.187 421.748 132.479 427.966C129.139 440.284 123.51 451.825 115.9 461.956C115.605 462.351 128.06 560.964 127.725 562.211C127.16 564.319 123.58 565.799 123.022 562.062C122.795 560.541 115.954 500.577 112.872 472.805C111.708 472.143 110.957 470.975 107.955 467.519C101.009 459.52 94.1408 449.566 89.5495 440.18C86.792 440.02 66.9007 430.104 57.0312 407.524C56.747 406.876 55.4647 403.819 55.282 403.136C55.0925 402.547 55.2278 402.044 55.2447 401.466Z" fill="#184655"/>
<path d="M119.138 369.493C118.912 366.456 118.799 363.358 118.799 360.197C118.799 324.973 133.395 296.424 151.395 296.424C169.395 296.424 183.991 324.98 183.991 360.197C183.991 363.356 183.879 366.454 183.653 369.493H119.138Z" fill="#3C8F7C"/>
<path d="M82.2583 353.82C82.0327 349.538 81.9199 345.168 81.9199 340.708C81.9199 291.035 96.5127 250.764 114.516 250.764C132.519 250.764 147.112 291.035 147.112 340.708C147.112 345.163 146.999 349.533 146.774 353.82H82.2583Z" fill="#50BFA5"/>
<path d="M94.1814 408.935C94.4081 405.898 94.5198 402.793 94.5198 399.636C94.5198 364.411 79.927 335.863 61.9237 335.863C43.9204 335.863 29.3276 364.415 29.3276 399.636C29.3276 402.793 29.4461 405.898 29.666 408.935H94.1814Z" fill="#50BFA5"/>
<path d="M146.351 408.935C146.637 404.653 146.783 400.283 146.787 395.823C146.787 346.15 128.286 305.879 105.465 305.879C82.6437 305.879 64.1431 346.136 64.1431 395.823C64.1431 400.278 64.2886 404.648 64.5795 408.935H146.351Z" fill="#3C8F7C"/>
<path d="M114.624 305.879C126.03 305.879 136.217 318.654 142.944 338.691C146.273 336.856 149.99 335.884 153.771 335.859C174.021 335.859 190.437 364.411 190.437 399.632C190.437 402.79 190.305 405.895 190.051 408.931H78.3437C78.0911 404.65 77.9625 400.279 77.958 395.82C77.958 346.136 94.3745 305.879 114.624 305.879Z" fill="#50BFA5"/>
<path d="M990.469 491.011C995.134 478.575 999.705 466.133 1003.02 453.198C1013.23 413.388 1010.77 384.372 1010.38 370.418C1010.34 368.577 1013.22 368.071 1013.47 369.974C1014.34 376.521 1014.54 383.172 1014.58 389.782C1014.65 400.979 1013.98 412.168 1012.59 423.273C1020.08 425.269 1027.16 422.278 1032.95 416.906C1042.94 407.642 1046.51 395.296 1048.08 381.62C1048.24 380.233 1048.29 378.902 1049.4 378.095C1049.65 377.377 1050.67 377.156 1050.92 378.227C1052.51 379.894 1051.74 383.238 1051.5 385.391C1048.2 414.504 1030.91 428.635 1016.98 428.514C1015.29 428.547 1013.59 428.357 1011.94 427.949C1010.94 434.92 1009.65 441.831 1008.07 448.682C1005.06 461.724 1000.85 474.312 996.207 486.783C980.339 529.413 975.277 551.211 970.767 563.553C970.09 566.034 966.504 564.994 967.13 562.482C967.366 561.601 979.75 519.591 990.469 491.011Z" fill="#29446D"/>
<path d="M926.887 378.916C927.036 378.001 927.564 377.391 927.76 376.532C928.021 375.398 929.827 375.284 930.017 376.532C930.125 377.246 930.511 377.686 930.66 378.414C931.143 380.774 929.983 394.038 933.028 414.345C933.84 419.741 934.72 425.11 936.493 430.26C939.328 438.579 944.495 447.562 950.923 453.236C951.091 441.341 951.855 429.463 953.214 417.648C954.046 410.575 955.099 403.539 956.374 396.541C956.996 393.137 957.673 389.742 958.404 386.354C959.162 382.805 959.879 379.395 961.537 376.182C962.048 375.194 963.496 375.651 963.499 376.747C963.499 379.901 962.89 382.805 962.248 385.869C961.605 388.933 961.009 391.976 960.454 395.047C956.323 417.783 954.77 437.976 954.787 460.74C961.594 451.968 967.549 441.462 971.958 431.144C977.309 418.649 980.801 405.403 982.318 391.848C982.731 388.056 982.98 384.252 983.066 380.434C983.106 378.459 983.146 376.483 983.184 374.508C983.205 373.492 983.583 370.428 985.255 371.326C986.791 372.151 986.646 373.995 986.774 375.606C986.913 377.36 986.926 379.11 986.906 380.871C986.865 384.245 986.691 387.611 986.382 390.971C984.172 415.295 975.216 439.341 961.588 459.041C959.51 462.046 957.369 465.28 954.844 467.886C955.426 506.819 961.192 558.728 961.29 562.659C961.314 563.528 961.29 563.303 960.975 563.626C959.744 564.891 958.299 565.306 957.835 563.948C956.959 561.383 957.101 558.978 955.805 544.774C953.474 519.445 950.869 461.423 950.876 459.073C942.789 453.118 937.061 443.961 933.316 434.395C931.333 429.318 930.166 424.098 929.293 418.691C926.302 400.305 926.393 381.925 926.887 378.916Z" fill="#29446D"/>
<path d="M982.494 347.144C982.182 344.29 982.026 341.421 982.027 338.549C982.027 305.99 1001.78 279.597 1026.14 279.597C1050.51 279.597 1070.26 305.99 1070.26 338.549C1070.26 341.421 1070.1 344.29 1069.79 347.144H982.494Z" fill="#4E9B87"/>
<path d="M932.565 332.657C932.26 328.699 932.101 324.65 932.101 320.526C932.101 274.61 951.85 237.386 976.214 237.386C1000.58 237.386 1020.33 274.61 1020.33 320.526C1020.33 324.64 1020.17 328.688 1019.86 332.657H932.565Z" fill="#50BFA5"/>
<path d="M1019.32 383.602C1019.72 379.571 1019.92 375.523 1019.91 371.472C1019.91 325.555 994.877 288.331 963.986 288.331C933.096 288.331 908.062 325.555 908.062 371.472C908.06 375.523 908.258 379.571 908.654 383.602H1019.32Z" fill="#4E9B87"/>
<path d="M976.384 288.342C991.819 288.342 1005.61 300.15 1014.71 318.672C1019.42 316.939 1024.38 316.054 1029.38 316.055C1056.78 316.055 1079 342.448 1079 375.007C1079 377.88 1078.83 380.751 1078.48 383.602H927.283C926.938 379.644 926.763 375.601 926.759 371.472C926.766 325.566 948.974 288.342 976.384 288.342Z" fill="#50BFA5"/>
<path d="M1062.8 562.516H0V565.345H1062.8V562.516Z" fill="#1A2538"/>
<path d="M393.975 551.263C391.989 550.126 390.754 547.863 390.304 544.546C389.966 541.919 390.084 538.622 390.703 534.748C391.434 530.432 392.501 526.183 393.894 522.042L394.232 522.163C392.847 526.286 391.786 530.517 391.058 534.813C390.101 540.813 389.861 548.483 394.154 550.947L393.975 551.263Z" fill="#1A2538"/>
<path d="M395.859 551.263C393.873 550.126 392.638 547.863 392.192 544.546C391.853 541.919 391.972 538.622 392.588 534.748C393.319 530.432 394.385 526.183 395.778 522.042L396.117 522.163C394.728 526.285 393.665 530.516 392.94 534.813C391.982 540.813 391.742 548.483 396.035 550.947L395.859 551.263Z" fill="#1A2538"/>
<path d="M396.732 518.673C396.241 516.685 395.986 514.644 395.974 512.593C395.885 507.75 396.888 502.952 398.904 498.57C400.041 496.113 402.443 493.129 404.994 489.971C409.322 484.599 414.228 478.51 414.806 472.853C415.287 468.226 414.228 465.512 413.257 464.046C412.707 463.159 411.933 462.441 411.017 461.967L411.149 461.62C411.2 461.641 412.421 462.154 413.517 463.814C414.532 465.329 415.635 468.129 415.145 472.884C414.546 478.648 409.606 484.783 405.245 490.193C402.714 493.333 400.325 496.3 399.205 498.719C394.408 509.086 397.026 518.475 397.054 518.562L396.732 518.673Z" fill="#1A2538"/>
<path d="M399.038 512.406L394.24 511.277L391.191 524.873L395.989 526.003L399.038 512.406Z" fill="#5184CE"/>
<path d="M396.73 524.414L391.217 523.116L390.842 524.788L396.355 526.086L396.73 524.414Z" fill="#184655"/>
<path d="M399.454 512.253L393.94 510.956L393.565 512.628L399.079 513.925L399.454 512.253Z" fill="#184655"/>
<path d="M417.337 453.382L416.975 453.728C416.892 453.813 416.779 453.861 416.661 453.861C416.543 453.861 416.43 453.813 416.346 453.728L409.917 446.467C409.879 446.423 409.85 446.371 409.831 446.315C409.813 446.258 409.806 446.199 409.81 446.14C409.815 446.081 409.831 446.023 409.857 445.97C409.884 445.918 409.92 445.871 409.965 445.833L410.327 445.486C410.41 445.401 410.524 445.353 410.642 445.353C410.759 445.353 410.872 445.401 410.956 445.486L417.385 452.747C417.423 452.792 417.451 452.844 417.47 452.9C417.488 452.956 417.495 453.016 417.49 453.075C417.486 453.134 417.47 453.191 417.444 453.244C417.418 453.297 417.381 453.343 417.337 453.382Z" fill="#13375B"/>
<path d="M439.177 447.486C438.315 446.769 433.507 446.1 433.591 447.14C433.676 448.179 427.095 461.942 427.095 461.942L419.384 455.011C419.313 454.768 418.072 452.411 418.031 451.947C417.99 451.482 416.61 450.605 415.967 450.73C415.324 450.855 416.515 451.68 416.593 451.832C416.806 452.245 415.984 452.397 415.984 452.397C415.984 452.397 413.616 451.07 413.572 450.29C413.528 449.51 413.034 447.864 412.523 448.21C412.262 448.387 412.262 449.552 412.347 450.103C412.195 449.476 411.978 448.768 411.768 448.716C411.389 448.588 411.196 449.087 411.267 449.33C411.339 449.573 411.944 452.234 412.14 452.532C412.337 452.831 416.14 455.974 416.688 456.66C416.688 456.66 423.57 466.223 428.337 467.581C429.014 467.779 431.044 465.388 433.256 462.552C435.469 459.717 441.867 449.729 439.177 447.486Z" fill="#EA9081"/>
<path d="M430.482 452.46C433.233 446.117 436.877 435.993 441.251 435.432C441.251 435.432 443.958 434.849 445.389 438.71C446.188 440.946 442.456 451.954 437.685 459.253C436.098 456.699 433.141 453.697 430.482 452.46Z" fill="#274F89"/>
<path d="M454.978 437.074C457.425 437.445 458.917 446.897 458.917 446.897L466.326 445.091C466.326 445.091 463.816 435.352 459.367 431.695C454.917 428.039 445.183 431.782 441.664 434.815C438.146 437.847 440.183 440.936 440.183 440.936C440.183 440.936 452.532 436.704 454.978 437.074Z" fill="#13375B"/>
<path d="M437.418 440.533C437.418 440.533 438.971 444.693 439.492 448.183C440.013 451.673 442.669 454.293 443.979 463C444.845 468.589 445.994 474.13 447.419 479.598C447.419 479.598 456.832 479.14 458.433 476.86C460.033 474.579 457.079 455.96 454.21 447.081C451.341 438.201 459.048 434.756 454.548 432.278C450.048 429.8 444.885 432.472 442.706 433.56C440.527 434.648 437.13 438.613 437.418 440.533Z" fill="#184655"/>
<path d="M453.669 445.899C453.669 445.899 455.577 452.744 455.563 459.915C455.55 467.086 458.48 480.877 458.48 480.877C458.48 480.877 466.015 485.077 467.595 480.825C467.893 480.028 467.781 470.982 467.432 467.235C467.06 463.256 464.935 449.462 464.242 444.991C464.096 444.056 463.723 443.174 463.156 442.426C461.339 440.031 457.191 434.745 455.956 434.693C454.345 434.628 451.973 438.523 453.669 445.899Z" fill="#F7CC7F"/>
<path d="M455.364 465.398C455.303 464.947 455.246 464.497 455.191 464.046C457.316 464.781 464.327 463.301 467.091 462.608C467.152 463.076 467.203 463.513 467.247 463.904C464.709 464.538 457.891 466.237 455.364 465.398Z" fill="#13375B"/>
<path d="M467.795 474.572C467.795 475.002 467.795 475.425 467.815 475.834C465.108 476.808 459.387 474.749 456.65 473.785C456.569 473.307 456.484 472.815 456.399 472.309C458.944 473.203 465.396 475.394 467.795 474.572Z" fill="#13375B"/>
<path d="M467.754 472.784C466.58 473.526 459.275 478.236 457.523 478.579C457.452 478.208 457.374 477.799 457.292 477.352C458.521 477.071 464.09 473.56 467.707 471.283C467.724 471.786 467.741 472.295 467.754 472.784Z" fill="#13375B"/>
<path d="M434.089 546.466C434.089 546.466 434.349 551.231 434.349 551.242C434.444 551.845 434.82 553.342 434.82 553.89C434.82 555.969 426.023 552.136 427.982 551.221C428.161 551.138 429.098 550.528 429.156 549.807C429.247 548.726 429.494 546.532 429.494 546.532L434.089 546.466Z" fill="#F7A491"/>
<path d="M428.006 551.19C429.034 551.509 430.077 551.773 431.132 551.98C432.191 552.139 433.588 550.809 434.339 551.169C435.162 551.564 435.08 555.46 435.08 555.46C435.08 555.46 424.037 556.153 420.917 555.089C419.682 554.673 423.776 552.663 428.006 551.19Z" fill="#F47458"/>
<path d="M450.593 546.913C450.593 546.913 450.85 551.678 450.85 551.689C450.945 552.292 451.321 553.789 451.321 554.337C451.321 556.416 442.524 552.583 444.486 551.668C444.662 551.585 445.877 550.49 445.938 549.786C446.026 548.705 445.978 546.979 445.978 546.979L450.593 546.913Z" fill="#F7A491"/>
<path d="M444.507 551.665C445.536 551.984 446.58 552.248 447.636 552.455C448.695 552.614 450.093 551.283 450.84 551.644C451.666 552.039 451.696 555.598 451.696 555.598C451.696 555.598 439.895 556.493 437.117 555.654C435.872 555.259 440.277 553.12 444.507 551.665Z" fill="#F47458"/>
<path d="M439.55 478.121L434.742 480.288L427.975 518.842L428.293 548.112L434.573 548.265C434.573 548.265 437.496 522.662 437.496 520.679C437.496 518.697 451.03 485.954 451.03 485.954L439.55 478.121Z" fill="#1A2538"/>
<path d="M439.506 480.267C439.506 480.267 442.25 510.351 442.25 515.422C442.25 520.492 444.473 548.871 444.473 548.871L450.769 548.833C450.769 548.833 451.223 540.168 451.899 527.459C452.004 525.462 451.764 521.442 451.899 519.38C452.877 504.538 455.036 485.067 454.112 479.521C453.963 478.631 453.348 476.704 452.803 476.115C448.685 471.671 439.506 480.267 439.506 480.267Z" fill="#283A56"/>
<path d="M403.873 554.272C405.193 548.542 401.729 542.8 396.135 541.447C390.541 540.095 384.935 543.644 383.615 549.374C382.294 555.105 385.759 560.847 391.353 562.199C396.947 563.552 402.553 560.003 403.873 554.272Z" fill="#184655"/>
<path d="M485.78 554.27C487.101 548.539 483.636 542.797 478.042 541.445C472.448 540.092 466.842 543.641 465.522 549.372C464.202 555.103 467.666 560.844 473.261 562.197C478.855 563.55 484.46 560 485.78 554.27Z" fill="#184655"/>
<path d="M400.607 553.482C401.501 549.6 399.154 545.71 395.364 544.793C391.574 543.877 387.776 546.281 386.881 550.164C385.987 554.046 388.334 557.937 392.124 558.853C395.914 559.769 399.712 557.365 400.607 553.482Z" fill="#5184CE"/>
<path d="M482.514 553.48C483.408 549.598 481.061 545.708 477.271 544.791C473.481 543.875 469.683 546.279 468.789 550.162C467.894 554.044 470.241 557.935 474.032 558.851C477.822 559.767 481.619 557.363 482.514 553.48Z" fill="#5184CE"/>
<path d="M476.226 551.207C476.131 550.953 475.941 550.747 475.699 550.634C475.456 550.521 475.18 550.51 474.93 550.604L462.75 555.293H413.629L401.137 526.873L399.49 532.255L410.51 557.165C410.543 557.293 410.642 557.373 410.868 557.373H463.234C463.532 557.373 475.627 552.548 475.627 552.548C475.753 552.501 475.868 552.428 475.966 552.335C476.064 552.242 476.143 552.13 476.199 552.005C476.255 551.881 476.286 551.746 476.29 551.609C476.295 551.472 476.273 551.335 476.226 551.207Z" fill="#1A2538"/>
<path d="M433.947 482.773L436.092 468.888C436.092 468.888 434.153 456.099 434.285 447.327C434.366 443.438 436.593 438.215 437.097 438.104C439.617 437.549 440.402 433.511 444.615 436.475C449.575 440.034 455.137 454.231 454.66 482.506C454.66 482.506 439.293 484.509 433.947 482.773Z" fill="#5184CE"/>
<path d="M434.61 433.439L435.672 437.189C435.672 437.189 436.779 442.71 438.748 443.296C440.717 443.881 443.129 436.53 443.129 436.53L437.885 426.181L434.61 433.439Z" fill="#F7A491"/>
<path d="M439.364 429.099C439.475 432.565 437.334 435.293 435.51 436.617L434.61 433.439L437.885 426.181L439.364 429.099Z" fill="#F47458"/>
<path d="M437.909 420.029C438.047 419.939 440.92 427.692 439.411 430.382C437.902 433.071 434.15 434.731 432.353 433.331C430.367 431.785 428.493 423.159 431.101 420.14C433.71 417.121 437.909 420.029 437.909 420.029Z" fill="#F7A491"/>
<path d="M433.243 416.331C435.723 415.835 439.262 416.633 441.39 418.858C444.006 421.596 440.906 432.08 440.906 432.08L439.523 430.157C439.523 430.157 438.589 429.02 438.846 427.73C439.103 426.441 437.273 426.077 436.586 425.225C436.058 424.569 435.655 422.875 434.809 421.783C434.809 421.783 432.204 420.539 430.627 420.861C427.944 421.412 429.687 417.048 433.243 416.331Z" fill="#13375B"/>
<path d="M437.621 426.711C437.313 427.63 437.499 428.528 438.037 428.715C438.575 428.902 439.259 428.313 439.567 427.398C439.875 426.483 439.688 425.582 439.15 425.391C438.613 425.2 437.929 425.793 437.621 426.711Z" fill="#F7A491"/>
<path d="M431.128 429.966L434.302 428.86C434.389 429.241 434.329 429.642 434.135 429.979C433.941 430.316 433.627 430.563 433.26 430.669C431.575 431.314 431.128 429.966 431.128 429.966Z" fill="white"/>
<path d="M438.41 450.841C437.641 445.313 437.093 437.671 441.932 434.898C443.657 433.886 445.992 434.506 447.738 434.953C445.637 434.905 443.786 435.969 442.845 436.686C438.914 439.393 439.672 445.698 440.392 450.581C442.196 462.875 453.662 459.111 453.662 459.111L454.129 461.287C454.129 461.287 448.167 462.84 443.549 461.131C439.868 459.742 438.41 450.841 438.41 450.841Z" fill="#184655"/>
<path d="M410.168 457.61C411.684 457.076 414.427 456.872 415.449 457.898C416.004 458.456 429.051 461.935 429.474 461.648C430.489 460.955 433.872 451.915 435.74 446.859C437.607 441.802 438.382 441.41 440.111 440.738C441.59 440.162 446.042 442.471 445.677 445.053C444.97 450.072 434.799 468.184 433.71 468.621C429.65 470.229 413.446 461.343 413.142 461.19C412.732 460.986 411.524 461.565 411.112 461.363C410.699 461.162 409.873 462.573 409.339 461.443C409.207 461.142 408.652 458.144 410.168 457.61Z" fill="#F7A491"/>
<path d="M395.013 537.354L397.335 537.833L412.226 462.045L409.904 461.566L395.013 537.354Z" fill="#1A2538"/>
<path d="M393.128 542.236L397.191 543.074L407.644 489.875L403.581 489.037L393.128 542.236Z" fill="#F47458"/>
<path d="M392.804 554.822C393.185 554.901 393.578 554.902 393.959 554.825C394.341 554.749 394.703 554.596 395.027 554.375C395.351 554.155 395.629 553.871 395.845 553.54C396.062 553.21 396.213 552.838 396.289 552.448L398.143 543.017C398.153 542.968 398.153 542.917 398.144 542.867C398.134 542.818 398.115 542.771 398.088 542.729C398.06 542.687 398.025 542.651 397.984 542.623C397.943 542.595 397.897 542.576 397.849 542.567L392.774 541.527C392.676 541.507 392.575 541.528 392.493 541.585C392.411 541.641 392.353 541.729 392.334 541.828L390.48 551.259C390.327 552.047 390.487 552.865 390.922 553.533C391.358 554.201 392.035 554.665 392.804 554.822Z" fill="#1A2538"/>
<path d="M392.873 538.955L397.227 516.791C397.262 516.617 397.363 516.463 397.508 516.364C397.652 516.265 397.83 516.23 398 516.265L402.508 517.194C402.592 517.212 402.672 517.246 402.743 517.295C402.815 517.344 402.876 517.407 402.923 517.48C402.971 517.553 403.004 517.635 403.02 517.721C403.037 517.807 403.036 517.896 403.02 517.982L398.664 540.149C398.63 540.324 398.529 540.478 398.384 540.576C398.239 540.675 398.062 540.711 397.891 540.676L393.373 539.744C393.206 539.706 393.059 539.602 392.966 539.454C392.872 539.307 392.839 539.128 392.873 538.955Z" fill="#1A2538"/>
<path d="M409.346 461.436C409.276 461.789 409.31 462.155 409.444 462.488C409.578 462.821 409.805 463.106 410.097 463.307C410.388 463.507 410.731 463.615 411.083 463.616C411.434 463.616 411.778 463.51 412.071 463.311C412.363 463.112 412.591 462.828 412.727 462.496C412.862 462.163 412.898 461.798 412.83 461.444C412.762 461.091 412.593 460.767 412.345 460.512C412.097 460.257 411.781 460.083 411.437 460.012C410.975 459.917 410.495 460.014 410.103 460.281C409.711 460.548 409.439 460.964 409.346 461.436Z" fill="#F47458"/>
<path d="M432.059 452.193C434.809 445.85 439.522 435.986 443.901 435.425C443.901 435.425 446.607 434.842 448.039 438.703C448.837 440.939 445.105 451.947 440.334 459.246C438.744 456.699 434.715 453.437 432.059 452.193Z" fill="#466EB6"/>
<path d="M456.372 462.615L453.976 462.905C452.909 463.034 452.146 464.025 452.272 465.118L454.149 481.388C454.275 482.482 455.243 483.263 456.31 483.134L458.705 482.844C459.772 482.714 460.535 481.724 460.409 480.631L458.532 464.36C458.406 463.267 457.439 462.486 456.372 462.615Z" fill="#50BFA5"/>
<path d="M458.994 468.404L452.734 469.161L452.891 470.525L459.151 469.767L458.994 468.404Z" fill="#13375B"/>
<path d="M663.5 442.44C664.227 441.31 667.11 441.944 669.928 443.854C672.746 445.764 674.465 448.224 673.738 449.354C673.01 450.484 670.131 449.853 667.309 447.944C664.488 446.034 662.775 443.57 663.5 442.44Z" fill="#1E3865"/>
<path d="M678.286 484.426L677.727 484.46C677.727 484.46 677.511 474.465 676.655 470.423C675.061 462.899 670.903 457.007 670.855 456.958L671.871 456.612C672.596 457.775 673.251 458.984 673.83 460.23C674.845 462.358 676.516 465.907 677.247 470.039C677.951 474.118 678.306 484.353 678.286 484.426Z" fill="#CA3139"/>
<path d="M668.189 442.353C668.189 442.353 671.84 441.552 673.603 444.595C675.365 447.639 675.453 452.914 676.621 454.647C677.788 456.38 679.852 463.675 677.663 465.308C675.474 466.94 661.97 465.249 661.212 464.504C660.455 463.759 661.26 456.092 662.566 453.874C663.872 451.656 660.671 441.22 668.189 442.353Z" fill="#B13332"/>
<path d="M662.749 475.661C658.614 474.583 654.07 468.015 654.07 468.015L655.234 466.975C656.439 468.427 661.45 470.933 661.45 470.933C661.423 469.602 661.45 468.389 661.538 467.283C662.096 459.769 664.86 457.267 665.615 456.719C665.675 456.673 665.739 456.63 665.804 456.591C665.804 456.591 665.804 456.647 665.804 456.751C665.804 456.972 665.838 457.423 665.858 458.04C666.017 462.646 666.2 476.562 662.749 475.661Z" fill="#FFAE73"/>
<path d="M655.234 466.982C655.234 466.802 655.102 464.209 654.601 463.731C654.1 463.253 653.112 462.57 652.828 462.625C652.544 462.681 651.58 464.324 652.036 465.453C652.493 466.583 654.066 468.015 654.066 468.015L655.234 466.982Z" fill="#FFAE73"/>
<path d="M671.745 519.338C671.495 520.378 671.218 521.338 670.933 522.246C670.876 522.44 670.815 522.634 670.754 522.821L670.663 523.095C670.605 523.275 670.548 523.442 670.487 523.625C670.412 523.851 670.334 524.069 670.26 524.28C670.186 524.492 670.148 524.592 670.094 524.745C669.255 527.046 668.555 528.505 668.555 528.505L666.883 528.388C667.33 525.935 667.582 523.45 667.638 520.957V520.485C667.638 520.146 667.638 519.799 667.638 519.446V519.005C667.604 515.238 667.147 510.784 665.696 506.528C664.616 503.382 663.728 500.172 663.036 496.914C661.037 487.476 661.507 481.279 661.507 481.279L670.9 482.402L671.339 482.457C671.377 486.876 671.488 492.876 671.586 497.569C671.586 498.383 671.617 499.156 671.634 499.877C671.698 502.889 671.749 504.948 671.749 504.948C673.576 508.937 672.919 514.559 671.745 519.338Z" fill="#FFAE73"/>
<path d="M676.228 480.201C674.452 476.121 673.603 474.971 673.572 473.685C673.549 472.673 674.039 471.578 674.987 468.892C675.208 468.263 675.366 467.612 675.46 466.951C676.211 461.776 673.288 456.179 671.471 455.797C670.967 455.662 670.118 453.794 670.118 450.782L669.891 450.827L666.068 451.604C666.068 451.604 666.152 452.834 666.156 453.995C666.156 454.965 666.108 455.95 665.895 456.075C665.618 456.099 662.617 456.65 662.072 457.53C661.527 458.411 662.133 458.48 661.923 461.637C661.646 465.855 664.549 470.853 661.974 479.286C659.348 487.892 677.209 482.454 676.228 480.201Z" fill="#FFAE73"/>
<path d="M666.071 451.604C666.071 451.604 666.156 452.834 666.159 453.995C668.301 453.933 669.431 451.936 669.881 450.827L666.071 451.604Z" fill="#FB995B"/>
<path d="M665.354 452.702C665.354 452.702 670.429 452.789 670.429 449.559C670.429 446.328 671.089 444.162 667.854 443.972C664.62 443.781 663.994 445.011 663.737 446.089C663.48 447.167 664.038 452.595 665.354 452.702Z" fill="#FFAE73"/>
<path d="M665.543 443.892C665.543 443.892 666.931 447.68 669.056 448.242C671.18 448.803 672.101 448.217 672.101 448.217C671.05 447.273 670.352 445.984 670.128 444.571C670.128 444.571 666.579 442.09 665.543 443.892Z" fill="#B13332"/>
<path d="M665.902 444.2C665.902 444.2 664.867 445.046 664.616 445.867C664.366 446.689 664.251 448.384 663.767 448.325C663.767 448.325 662.725 445.75 663.899 444.294C665.124 442.748 665.902 444.2 665.902 444.2Z" fill="#B13332"/>
<path d="M682.819 484.533L681.3 485.001C681.3 485.001 676.286 476.478 675.829 474.257C675.68 473.536 675.315 472.091 674.892 470.472C674.009 467.12 672.862 463.02 672.862 463.02L672.486 461.36L671.21 455.697C671.21 455.697 673.653 455.953 675.084 456.567C675.476 456.688 675.815 456.946 676.042 457.295C677.094 459.658 678.143 465.613 678.877 469.886C679.29 472.26 679.601 474.101 679.767 474.492C680.227 475.584 681.621 481.577 682.819 484.533Z" fill="#FFAE73"/>
<path d="M665.695 444.329C665.695 444.329 666.68 448.297 669.366 449.566C669.366 449.566 666.68 447.139 666.453 444.509C666.227 441.878 665.695 444.329 665.695 444.329Z" fill="#B13332"/>
<path d="M677.135 518.506C676.594 524.398 674.215 528.232 674.215 528.232L673.403 528.987C673.403 528.987 672.665 524.665 672.131 519.716C671.62 515.013 670.923 510.032 670.135 508.514C668.954 506.244 668.084 501.582 667.458 496.695C666.443 488.575 666.058 479.736 666.058 479.736L675.582 479.255C676.54 480.904 676.959 483.611 677.057 486.686C677.118 490.072 676.954 493.459 676.567 496.823C676.086 501.381 675.416 505.183 675.261 506.036C675.247 506.149 675.269 506.263 675.325 506.362C677.216 510.209 677.49 514.607 677.135 518.506Z" fill="#FFAE73"/>
<path d="M659.078 471.897C659.227 473.883 659.954 476.551 662.745 476.967C663.733 477.116 664.437 476.201 664.941 474.683C665.594 472.697 665.899 469.678 666.02 466.642C666.136 463.769 666.088 460.875 666.02 458.834C664.873 458.702 662.772 457.707 662.13 457.447C662.11 457.465 662.092 457.485 662.075 457.506L662.038 457.558C662.015 457.587 661.996 457.618 661.981 457.652C661.7 458.196 661.659 461.235 661.52 464.102C661.402 466.614 661.206 468.996 660.715 469.463C660.492 469.671 659.118 469.678 659.118 469.678C659.035 470.415 659.021 471.158 659.078 471.897Z" fill="#FFB600"/>
<path d="M666.02 466.642C665.804 472.004 665.022 477.31 662.745 476.967C659.954 476.551 659.227 473.882 659.078 471.896C659.754 471.862 660.969 471.689 661.446 470.94C662.123 469.869 664.275 462.968 664.275 462.968C664.275 462.968 665.12 464.514 666.02 466.642Z" fill="#FF9F00"/>
<path d="M663.057 473.924C663.057 473.924 668.659 475.362 673.572 473.685C673.572 473.685 676.279 479.556 677.013 482.069C677.747 484.582 683.364 516.777 683.364 516.777C683.364 516.777 671.021 520.433 662.82 517.276C662.82 517.276 660.404 482.859 661.466 479.255C662.529 475.65 663.057 473.924 663.057 473.924Z" fill="#25468F"/>
<path d="M661.52 464.095C661.93 468.254 663.057 473.872 663.057 473.872C663.655 474.196 664.287 474.451 664.941 474.631C669.292 475.841 673.572 473.636 673.572 473.636C673.572 473.636 673.572 473.508 673.572 473.352C673.572 473.196 673.596 473.078 673.609 472.974C673.64 472.739 674.675 470.202 674.675 470.202C674.675 470.202 674.712 470.399 674.783 470.732C675.159 472.576 676.455 478.624 677.25 479.172C677.71 479.483 679.185 479.49 680.569 479.102C682.007 478.704 683.347 477.875 683.347 476.534C683.347 474.801 680.302 467.048 678.103 461.728C676.932 458.892 676.252 456.917 675.359 456.695C675.359 456.695 669.34 459.204 666.007 458.82C664.86 458.688 662.759 457.697 662.116 457.433L662.062 457.496C662.047 457.51 662.035 457.527 662.025 457.544L661.987 457.6C661.5 458.338 661.578 459.558 661.551 460.026C661.415 461.378 661.405 462.741 661.52 464.095Z" fill="#FFB600"/>
<path d="M674.699 470.261C674.699 470.261 673.667 472.787 673.633 473.033C673.633 473.141 673.606 473.283 673.596 473.415C673.086 473.832 672.502 474.146 671.877 474.34C670.131 474.881 669.37 471.449 669.475 469.737C669.58 468.025 672.05 463.152 672.875 463.034C673.701 462.916 674.699 470.261 674.699 470.261Z" fill="#FF9F00"/>
<path d="M674.801 470.79C674.73 470.444 674.692 470.261 674.692 470.261C674.746 470.433 674.782 470.611 674.801 470.79Z" fill="#F28018"/>
<path d="M667.594 475.019C664.403 475.019 663.138 474.101 663.039 474.025L662.833 472.486C662.863 472.507 667.147 475.141 673.772 472.617L673.633 473.785C671.072 474.756 669.238 475.019 667.594 475.019Z" fill="#0B3563"/>
<path d="M683.364 476.61C683.364 477.958 682.011 478.787 680.586 479.189C682.569 476.763 678.218 462.133 678.12 461.759C680.315 467.096 683.364 474.888 683.364 476.61Z" fill="#FF9F00"/>
<path d="M669.515 529.94H668.45C668.091 529.881 667.83 529.777 667.462 529.725C667.311 529.69 667.155 529.691 667.005 529.728C666.856 529.765 666.716 529.838 666.599 529.94H662.072C661.96 529.774 662.072 529.386 662.177 529.105C662.212 529.009 662.269 528.923 662.342 528.854C662.415 528.785 662.504 528.734 662.6 528.706C663.443 528.56 664.234 528.189 664.894 527.632C665.381 527.181 667.262 525.972 667.262 525.972C667.303 525.972 667.495 526.034 668.345 526.769C668.785 527.147 669.532 526.232 669.532 526.232C669.636 526.33 669.72 526.447 669.779 526.578C669.881 526.793 669.916 527.036 669.877 527.272C669.81 527.691 670.026 528.467 670.199 529.004C670.307 529.323 670.395 529.549 670.395 529.549C670.395 529.549 670.432 529.829 669.515 529.94Z" fill="#1E3865"/>
<path d="M669.766 526.585C669.424 526.856 669.035 527.057 668.619 527.178C668.138 527.24 667.238 525.982 667.238 525.982C667.279 525.982 667.472 526.045 668.321 526.779C668.761 527.157 669.509 526.242 669.509 526.242C669.615 526.338 669.703 526.455 669.766 526.585Z" fill="#3D6AA9"/>
<path d="M669.515 529.94H668.45C668.091 529.881 667.83 529.777 667.462 529.725C667.311 529.69 667.155 529.691 667.005 529.728C666.856 529.765 666.716 529.838 666.599 529.94H662.072C661.96 529.774 662.072 529.386 662.177 529.105C662.312 528.977 662.353 529.646 662.427 529.753C662.502 529.861 666.122 529.791 666.328 529.639C666.584 529.486 666.868 529.388 667.163 529.351C667.457 529.314 667.756 529.339 668.04 529.424C668.798 529.608 669.921 529.133 670.195 529.005C670.304 529.323 670.392 529.549 670.392 529.549C670.392 529.549 670.432 529.829 669.515 529.94Z" fill="#3D6AA9"/>
<path d="M675.203 529.94H674.137C673.778 529.881 673.518 529.777 673.149 529.725C672.999 529.69 672.843 529.691 672.693 529.728C672.543 529.765 672.404 529.838 672.286 529.94H667.759C667.648 529.774 667.759 529.386 667.864 529.105C667.899 529.009 667.956 528.923 668.03 528.854C668.103 528.785 668.191 528.734 668.287 528.706C669.13 528.56 669.921 528.189 670.581 527.632C671.068 527.181 672.95 525.972 672.95 525.972C672.99 525.972 673.183 526.034 674.032 526.769C674.472 527.147 675.22 526.232 675.22 526.232C675.323 526.33 675.407 526.447 675.467 526.578C675.569 526.793 675.603 527.036 675.565 527.272C675.497 527.691 675.714 528.467 675.903 529.004C676.008 529.323 676.096 529.549 676.096 529.549C676.096 529.549 676.12 529.829 675.203 529.94Z" fill="#1E3865"/>
<path d="M675.453 526.585C675.111 526.856 674.722 527.057 674.306 527.178C673.822 527.24 672.926 525.982 672.926 525.982C672.966 525.982 673.159 526.045 674.008 526.779C674.448 527.157 675.196 526.242 675.196 526.242C675.303 526.338 675.39 526.455 675.453 526.585Z" fill="#3D6AA9"/>
<path d="M675.203 529.94H674.137C673.778 529.881 673.518 529.777 673.149 529.725C672.999 529.69 672.843 529.691 672.693 529.728C672.543 529.765 672.404 529.838 672.286 529.94H667.759C667.648 529.774 667.759 529.386 667.864 529.105C668 528.977 668.04 529.646 668.115 529.753C668.189 529.861 671.809 529.791 672.016 529.639C672.272 529.486 672.556 529.388 672.85 529.351C673.144 529.314 673.443 529.339 673.728 529.424C674.486 529.608 675.609 529.133 675.886 529.005C675.991 529.323 676.079 529.549 676.079 529.549C676.079 529.549 676.12 529.829 675.203 529.94Z" fill="#3D6AA9"/>
<path d="M682.704 484.273C682.704 484.273 683.168 485.389 683.648 485.701C684.181 486.106 684.551 486.696 684.687 487.361C684.733 487.564 684.736 487.775 684.696 487.979C684.656 488.183 684.574 488.376 684.456 488.545C684.337 488.715 684.185 488.856 684.009 488.96C683.833 489.064 683.637 489.129 683.435 489.15C682.826 489.15 682.248 488.301 681.889 486.273C681.869 486.162 681.293 485.001 681.293 485.001L682.704 484.273Z" fill="#FFAE73"/>
<path d="M652.937 461.225L653.008 461.974L653.234 464.33L653.376 465.838H656.313L656.493 464.33L656.777 461.974L656.865 461.225H652.937Z" fill="#FA9332"/>
<path d="M652.73 461.224H657.099L657.011 460.774H652.835L652.73 461.224Z" fill="#DD7517"/>
<path d="M653.008 461.974L653.235 464.33H656.493L656.777 461.974H653.008Z" fill="#DD7517"/>
<path d="M652.622 462.823C652.622 462.823 653.363 461.974 654.107 462.622C654.852 463.27 654.057 464.656 653.431 465.048C653.129 465.212 652.844 465.404 652.578 465.623L652.622 462.823Z" fill="#FFAE73"/>
<path d="M669.458 484.454L670.016 484.412C670.016 484.412 668.924 474.409 669.242 470.261C669.837 462.535 673.19 456.082 673.231 456.026L672.195 455.835C671.63 457.098 671.141 458.394 670.73 459.717C669.989 461.984 668.812 465.751 668.626 469.973C668.44 474.194 669.431 484.402 669.458 484.454Z" fill="#CA3139"/>
<path d="M676.222 482.256C676.222 482.256 675.68 480.891 674.817 480.547L670.419 481.397C670.419 481.397 671.505 482.457 671.607 483.13L676.222 482.256Z" fill="#CDE3FF"/>
<path d="M677.017 482.136L669.496 483.588C669.141 483.656 668.908 484.006 668.975 484.369L669.914 489.475C669.981 489.838 670.322 490.077 670.677 490.008L678.198 488.557C678.552 488.488 678.785 488.138 678.718 487.775L677.779 482.67C677.713 482.307 677.371 482.068 677.017 482.136Z" fill="#9C242A"/>
<path d="M673.454 484.161L677.054 484.129L677.013 479.405L673.414 479.437L673.454 484.161Z" fill="#F28018"/>
<path d="M673.657 484.163L677.257 484.131L677.217 479.407L673.617 479.439L673.657 484.163Z" fill="#FA9332"/>
<path d="M674.223 486.005L677.082 483.763L674.279 480.012L671.42 482.253L674.223 486.005Z" fill="#458E9C"/>
<path d="M674.545 485.753L677.404 483.511L674.601 479.76L671.742 482.001L674.545 485.753Z" fill="#63ACBF"/>
<path d="M678.542 481.834L671.34 483.224C670.898 483.309 670.607 483.746 670.69 484.199L671.569 488.978C671.652 489.431 672.079 489.729 672.521 489.644L679.723 488.254C680.166 488.168 680.457 487.732 680.373 487.278L679.494 482.5C679.411 482.046 678.985 481.748 678.542 481.834Z" fill="#CA3139"/>
<path d="M674.236 446.55C674.236 446.55 676.54 441.854 673.322 440C670.104 438.145 667.746 438.87 665.977 441.14L674.236 446.55Z" fill="#1E3865"/>
<path d="M663.368 445.185C663.486 444.763 663.654 444.358 663.868 443.979C663.781 443.812 663.734 443.626 663.729 443.437C663.725 443.248 663.765 443.061 663.845 442.89C664.061 442.544 664.555 442.395 665.222 442.436C666.369 442.512 668.033 443.129 669.708 444.214C671.338 445.229 672.667 446.68 673.552 448.411C673.89 449.105 675.061 449.961 675.474 450.869C675.651 450.832 675.819 450.759 675.969 450.654C676.118 450.549 676.245 450.415 676.343 450.259C676.945 449.274 676.039 447.486 674.188 445.642C673.053 444.53 671.805 443.545 670.466 442.703C669.376 441.999 668.23 441.391 667.039 440.887C664.244 439.712 661.926 439.539 661.263 440.623C660.674 441.601 661.554 443.351 663.368 445.185Z" fill="#25468F"/>
<path d="M621.24 459.173C620.902 458.528 628.373 456.203 628.491 462.577C628.491 462.577 642.465 462.23 635.793 454.258C633.482 451.486 633.718 449.216 633.79 447.087C633.861 444.959 632.348 438.769 627.178 439.407C626.675 439.248 626.144 439.197 625.621 439.257C625.097 439.317 624.591 439.486 624.133 439.754C620.296 441.767 611.685 461.523 621.24 459.173Z" fill="#0B3563"/>
<path d="M644.092 466.299C644.092 466.299 644.999 464.882 645.733 464.854C646.467 464.826 647.824 464.438 647.716 464.715C647.608 464.992 646.765 465.02 646.701 465.187C646.637 465.353 647.949 465.606 648.328 465.634C648.707 465.661 649.604 465.634 649.577 465.828C649.55 466.022 647.963 466.829 646.843 466.719C645.995 466.69 645.149 466.808 644.339 467.065L644.092 466.299Z" fill="#FFAE73"/>
<path d="M630.938 466.75C631.335 467.51 631.801 468.23 632.328 468.902C633.407 470.288 635.075 471.893 637.166 472.209C638.15 472.334 639.148 472.168 640.042 471.73C642.583 470.573 644.495 467.918 644.495 467.918C644.629 467.572 644.674 467.197 644.624 466.829C644.574 466.461 644.432 466.112 644.211 465.817C644.211 465.817 639.078 466.999 638.591 466.75C638.104 466.5 635.251 458.085 634.571 457.045C633.891 456.005 631.58 455.44 631.58 455.44L630.938 466.75Z" fill="#FDDBBA"/>
<path d="M632.328 468.912C633.407 470.299 635.075 471.903 637.166 472.219C638.15 472.345 639.148 472.179 640.042 471.741C639.944 471.741 637.407 472.087 636.395 470.222C635.383 468.358 634.247 465.325 632.714 466.327C632.068 466.75 632.068 467.834 632.328 468.912Z" fill="#F8CAA4"/>
<path d="M611.794 523.497C611.794 523.497 610.227 524.963 610.532 526.003C610.836 527.043 612.251 527.736 612.44 529.008C612.63 530.28 613.398 530.973 614.085 530.973H617.36C617.36 530.973 617.867 530.079 616.646 529.809C615.424 529.538 614.954 528.044 615.039 526.658C615.071 525.578 615.033 524.496 614.924 523.421L612.329 522.804L611.794 523.497Z" fill="#1E3865"/>
<path d="M625.043 524.121C625.043 524.121 624.482 530.322 625.169 530.668L633.966 530.651C633.966 530.651 633.966 529.611 632.555 529.379C631.144 529.147 628.657 528.301 628.237 526.412C627.818 524.523 625.043 524.121 625.043 524.121Z" fill="#1E3865"/>
<path d="M618.777 479.633C620.587 475.473 621.694 474.281 621.484 472.992C621.325 472.028 621.961 455.076 621.961 455.076C622.178 455.011 622.607 454.948 622.844 454.896C623.21 454.816 623.549 454.642 623.831 454.39C624.112 454.139 624.327 453.818 624.455 453.458C624.845 452.228 625.03 450.939 625.003 449.645L625.236 449.694L629.134 450.484C629.134 450.484 629.046 451.742 629.043 452.91V452.941C629.039 453.442 629.196 453.929 629.487 454.33C629.779 454.731 630.191 455.024 630.66 455.163L631.584 455.433C632.473 458.184 633.041 461.034 633.275 463.921C633.546 468.223 630.67 470.091 633.296 478.69C635.989 487.469 617.776 481.93 618.777 479.633Z" fill="#FFAE73"/>
<path d="M629.134 450.46C629.134 450.46 629.046 451.718 629.043 452.886C626.86 452.824 625.707 450.786 625.236 449.656L629.134 450.46Z" fill="#F48F4E"/>
<path d="M629.862 451.593C629.862 451.593 624.702 451.68 624.698 448.384C624.695 445.088 624.022 442.883 627.321 442.689C630.619 442.495 631.259 443.75 631.519 444.849C631.78 445.947 631.205 451.5 629.862 451.593Z" fill="#FFAE73"/>
<path d="M629.672 442.61C629.672 442.61 628.258 446.474 626.089 447.046C623.92 447.618 622.979 447.022 622.979 447.022C624.05 446.058 624.76 444.743 624.989 443.303C624.989 443.303 628.606 440.755 629.672 442.61Z" fill="#0B3563"/>
<path d="M629.32 442.922C629.32 442.922 630.369 443.324 630.802 444.107C631.322 445.021 631.565 446.073 631.499 447.129C631.499 447.129 632.565 444.505 631.367 443.019C630.099 441.449 629.32 442.922 629.32 442.922Z" fill="#0B3563"/>
<path d="M628.738 449.548C628.871 449.702 629.036 449.822 629.222 449.899C629.407 449.977 629.608 450.009 629.807 449.995C629.975 449.985 630.137 449.929 630.276 449.835C630.416 449.74 630.529 449.609 630.603 449.455C629.985 449.31 629.34 449.343 628.738 449.548Z" fill="#E8F2FA"/>
<path d="M618.276 462.591C618.2 463.976 618.2 465.364 618.276 466.75C618.364 468.254 619.853 470.271 620.063 470.77C620.594 472.021 621.19 472.226 621.19 472.226L625.808 473.387L627.432 473.792L632.555 472.226C632.555 472.226 634.886 465.557 633.949 461.8C633.408 459.592 632.613 457.457 631.58 455.44C631.58 455.44 627.402 459.631 621.958 455.094L618.276 462.591Z" fill="#FDDBBA"/>
<path d="M619.63 467.356C619.718 468.864 619.853 470.264 620.063 470.763C620.594 472.014 621.19 472.219 621.19 472.219L625.808 473.38L627.814 472.773C627.814 472.773 621.119 471.734 621.86 465.842L619.63 467.356Z" fill="#F8CAA4"/>
<path d="M632.23 473.231C632.23 473.231 634.764 481.317 634.937 484.072C635.109 486.828 630.088 523.185 629.889 524.454C629.699 525.65 628.248 526.412 628.248 526.412C627.744 526.664 627.166 526.71 626.63 526.54C625.311 526.159 624.891 525.702 624.891 525.702C624.891 525.702 622.919 499.77 624.14 490.505C624.884 484.777 625.296 479.009 625.375 473.231H632.23Z" fill="#FC7600"/>
<path d="M621.484 472.988C621.484 472.988 617.613 478.305 617.255 481.899C616.896 485.493 616.686 498.12 615.901 501.624C615.116 505.128 612.312 511.872 612.312 522.8C612.581 523.262 613.008 523.605 613.509 523.764C613.8 523.868 614.186 523.972 614.565 524.062C614.928 524.146 615.309 524.102 615.645 523.938C615.981 523.774 616.254 523.499 616.419 523.157C618.327 519.224 624.407 506.521 624.719 503.89C624.942 502.026 626.86 489.68 631.049 482.436C632.064 480.703 630.43 473.772 630.43 473.772L621.484 472.988Z" fill="#FF912B"/>
<path d="M628.854 449.635C628.854 449.635 628.945 450.022 629.869 449.981C629.869 449.981 630.66 449.932 630.637 449.507C630.047 449.328 629.413 449.373 628.854 449.635Z" fill="white"/>
<path d="M632.633 471.983C632.633 471.983 631.618 472.808 629.587 472.85C627.168 472.898 621.183 472.219 621.183 472.219C621.018 472.724 620.932 473.253 620.929 473.785C620.929 473.785 628.241 475.674 632.477 474.059C632.793 473.415 632.849 472.669 632.633 471.983Z" fill="#1E3865"/>
<path d="M629.07 473.706C629.096 473.488 629.183 473.284 629.319 473.116C629.456 472.948 629.638 472.824 629.842 472.759C630.046 472.694 630.264 472.691 630.47 472.749C630.675 472.808 630.86 472.927 631.002 473.091C631.144 473.254 631.236 473.457 631.268 473.673C631.301 473.889 631.271 474.111 631.184 474.31C631.096 474.51 630.954 474.679 630.775 474.798C630.595 474.917 630.386 474.981 630.173 474.981C629.862 474.961 629.571 474.815 629.365 474.576C629.158 474.337 629.052 474.024 629.07 473.706ZM629.435 473.706C629.46 473.85 629.525 473.984 629.622 474.092C629.719 474.199 629.844 474.277 629.982 474.314C630.12 474.352 630.266 474.348 630.402 474.304C630.538 474.259 630.659 474.176 630.751 474.064C630.843 473.951 630.901 473.814 630.92 473.669C630.938 473.524 630.915 473.376 630.855 473.244C630.794 473.111 630.697 472.999 630.577 472.921C630.456 472.842 630.316 472.801 630.173 472.801C629.958 472.822 629.761 472.929 629.623 473.098C629.485 473.268 629.417 473.486 629.435 473.706Z" fill="white"/>
<path d="M613.353 473.44L620.845 480.122L629.775 469.618L622.283 462.935L613.353 473.44Z" fill="#C23B35"/>
<path d="M622.878 473.47C622.878 473.47 625.625 473.799 625.615 474.465C625.605 475.13 624.939 476.506 624.6 476.565C624.262 476.624 622.367 474.711 622.367 474.711L622.878 473.47Z" fill="#FFAE73"/>
<path d="M621.961 455.076C621.961 455.076 618.297 455.34 616.886 458.837C615.475 462.334 612.826 468.195 612.826 469.197C612.826 470.198 614.315 473.231 622.3 474.981C622.3 474.981 623.129 474.09 623.078 473.387C623.078 473.387 618.087 468.996 618.101 468.483C618.125 467.512 618.916 466.23 623.301 461.738C624.499 460.511 621.961 455.076 621.961 455.076Z" fill="#FDDBBA"/>
<path d="M853.822 505.35C853.822 505.35 851.392 532.214 856.813 546.847C858.311 550.892 874.941 566.672 877.553 571.958C877.553 571.958 881.129 568.779 880.666 568.024C878.264 564.1 875.019 551.984 867.788 543.929C860.558 535.874 869.284 515.037 869.284 515.037L853.822 505.35Z" fill="#F48F4E"/>
<path d="M855.893 497.052C849.055 495.271 841.537 484.405 841.537 484.405L843.462 482.693C845.455 485.098 853.744 489.247 853.744 489.247C853.7 487.043 853.744 485.032 853.893 483.206C854.813 470.774 859.388 466.632 860.636 465.724C860.737 465.646 860.842 465.576 860.951 465.512C860.951 465.512 860.951 465.602 860.951 465.776C860.968 466.143 861.002 466.888 861.035 467.911C861.303 475.518 861.607 498.543 855.893 497.052Z" fill="#FFAE73"/>
<path d="M843.461 482.693C843.434 482.398 843.587 478.534 842.348 477.768C841.371 477.154 839.949 475.394 839.479 475.484C839.009 475.574 837.716 478.395 838.464 480.267C839.212 482.138 841.53 484.405 841.53 484.405L843.461 482.693Z" fill="#FFAE73"/>
<path d="M860.393 582.664L863.871 582.248C863.871 582.248 872.959 563.068 871.73 551.166C871.433 548.432 871.685 545.665 872.471 543.035C873.341 540.189 874.451 536.408 875.398 532.713C875.977 530.467 876.542 528.107 877.046 525.715C877.723 522.527 878.288 519.293 878.636 516.25C879.211 511.193 879.181 506.66 878.01 503.717L862.308 502.109C862.308 502.109 860.954 515.006 860.582 527.816C860.558 528.613 860.541 529.413 860.524 530.207C860.393 537.205 861.414 543.031 862.088 548.102C862.294 549.684 862.348 551.284 862.25 552.878L860.393 582.664Z" fill="#FFAE73"/>
<path d="M866.33 451.687C866.33 451.687 870.008 454.893 866.638 458.584C866.638 458.584 869.447 458.868 870.397 458.071C870.302 458.273 870.181 458.462 870.039 458.632C870.039 458.632 873.179 458.747 874.478 457.745C875.777 456.744 874.938 440.277 866.222 442.117C866.222 442.117 858.833 441.549 859.52 450.307C860.206 459.066 857.418 459.066 857.418 459.066C857.78 459.256 858.168 459.388 858.569 459.457C858.569 459.457 859.117 459.242 859.225 458.934C859.179 459.161 859.094 459.378 858.975 459.575C858.975 459.575 861.986 459.866 863.492 458.702C864.997 457.537 866.76 453.493 866.33 451.687Z" fill="#1E3865"/>
<path d="M855.256 470.909H875.405C873.963 467.211 871.896 464.535 870.33 464.206C869.494 463.98 868.076 460.889 868.093 455.905L867.718 455.978L861.391 457.263C861.391 457.263 861.533 459.301 861.539 461.225C861.539 462.826 861.458 464.455 861.106 464.646C860.815 464.674 860.524 464.716 860.237 464.774C860.237 464.774 856.803 467.224 855.256 470.909Z" fill="#FFAE73"/>
<path d="M861.391 457.246C861.391 457.246 861.536 459.284 861.539 461.208C865.079 461.104 866.953 457.797 867.718 455.96L861.391 457.246Z" fill="#F48F4E"/>
<path d="M868.371 455.257C868.371 455.257 870.228 452.252 870.671 449.683C870.989 447.85 870.079 441.057 863.41 442.034C862.068 442.224 860.784 442.722 859.655 443.49C858.21 444.491 856.119 446.651 858.454 452.581L859.063 454.588L868.371 455.257Z" fill="#1E3865"/>
<path d="M860.21 459.066C860.21 459.066 868.584 459.204 868.591 453.867C868.598 448.529 869.684 444.942 864.334 444.623C858.985 444.304 857.943 446.356 857.52 448.131C857.097 449.905 858.031 458.889 860.21 459.066Z" fill="#FFAE73"/>
<path d="M860.518 444.488C860.518 444.488 862.812 450.758 866.33 451.687C869.849 452.616 871.378 451.645 871.378 451.645C869.642 450.083 868.49 447.951 868.12 445.614C868.12 445.614 862.25 441.5 860.518 444.488Z" fill="#1E3865"/>
<path d="M861.086 444.994C861.086 444.994 859.374 446.38 858.958 447.767C858.542 449.153 858.352 451.926 857.554 451.836C857.554 451.836 855.825 447.573 857.767 445.16C859.827 442.596 861.086 444.994 861.086 444.994Z" fill="#1E3865"/>
<path d="M889.094 511.737L886.58 512.51C886.58 512.51 878.284 498.407 877.53 494.74C877.283 493.545 876.68 491.157 875.977 488.477C874.518 482.932 872.641 476.146 872.641 476.146L872.021 473.397L869.907 464.039C869.907 464.039 873.967 464.462 876.335 465.478C877.117 465.824 877.716 466.209 877.922 466.68C879.661 470.593 881.394 480.471 882.615 487.517C883.292 491.444 883.813 494.491 884.083 495.142C884.811 496.927 887.125 506.843 889.094 511.737Z" fill="#FFAE73"/>
<path d="M860.768 445.205C860.768 445.205 862.402 451.791 866.858 453.87C866.858 453.87 862.416 449.836 862.04 445.5C861.665 441.164 860.768 445.205 860.768 445.205Z" fill="#1E3865"/>
<path d="M861.306 482.135C860.968 491.004 859.658 499.783 855.892 499.218C851.271 498.525 850.07 494.11 849.823 490.827C849.73 489.611 849.752 488.389 849.89 487.178C849.89 487.178 852.164 487.178 852.533 486.831C854.279 485.178 853.761 468.971 854.624 467.29C855.486 465.609 861.096 464.518 861.096 464.518C861.096 464.518 861.661 473.37 861.306 482.135Z" fill="white"/>
<path d="M882.676 523.407C880.013 524.285 877.285 524.939 874.518 525.362C868.506 526.325 860.098 526.672 852.59 523.407C852.59 523.407 851.971 510.472 853.751 503.731C855.53 496.99 856.359 493.76 856.359 493.76C856.359 493.76 863.488 495.839 870.729 494.224C871.765 494.001 872.783 493.697 873.774 493.316C873.774 493.316 878.24 504.292 879.468 508.996C880.696 513.699 882.676 523.407 882.676 523.407Z" fill="#25468F"/>
<path d="M890.008 498.636C890.008 500.865 887.792 502.234 885.41 502.899C883.119 503.54 880.673 503.53 879.922 503.01C878.606 502.105 876.461 492.065 875.835 489.008C875.723 488.453 875.659 488.127 875.659 488.127C875.659 488.127 873.947 492.307 873.896 492.696C873.869 492.872 873.849 493.115 873.835 493.326C873.822 493.538 873.808 493.794 873.808 493.794C873.808 493.794 864.527 498.595 856.404 494.186C856.404 494.186 853.101 474.638 854.536 471.273C855.246 469.599 858.962 466.15 860.45 464.66C860.789 464.313 860.751 463.665 860.619 463.058C860.591 462.941 860.594 462.818 860.627 462.702C860.66 462.586 860.721 462.48 860.806 462.396C860.891 462.312 860.996 462.252 861.11 462.223C861.225 462.193 861.345 462.194 861.458 462.227C862.413 462.483 864.135 462.438 865.979 461.818C866.959 461.492 867.888 461.026 868.74 460.431C868.8 460.39 868.869 460.365 868.942 460.359C869.014 460.353 869.086 460.366 869.152 460.397C869.218 460.428 869.275 460.476 869.318 460.536C869.361 460.596 869.388 460.666 869.396 460.74C869.535 461.904 869.88 464.032 870.509 464.032C871.372 464.032 877.276 464.771 877.702 465.516C877.855 465.776 879.394 469.328 881.323 474.042C884.963 482.887 890.008 495.78 890.008 498.636Z" fill="white"/>
<path d="M875.675 488.12C875.675 488.12 873.963 492.3 873.913 492.689C873.886 492.865 873.865 493.108 873.852 493.319C873.008 494.012 872.042 494.532 871.006 494.851C868.113 495.749 866.858 490.068 867.031 487.226C867.203 484.384 871.294 476.305 872.657 476.135C874.021 475.965 875.675 488.12 875.675 488.12Z" fill="#EAF2FF"/>
<path d="M875.835 489.001C875.723 488.446 875.659 488.12 875.659 488.12C875.745 488.407 875.804 488.702 875.835 489.001Z" fill="#F28018"/>
<path d="M895.327 522.714C895.24 522.274 895.045 521.865 894.76 521.524C894.475 521.184 894.11 520.924 893.699 520.769C891.667 520.014 889.45 519.959 887.386 520.613C882.771 522 882.31 524.908 882.625 526.994C882.94 529.081 882.026 532.415 882.158 534.786C882.29 537.156 882.953 543.104 886.371 542.792C889.788 542.48 900.798 539.447 900.798 539.447C900.798 539.447 902.699 535.739 898.791 530.37C897.099 528.111 895.916 525.496 895.327 522.714Z" fill="#E06600"/>
<path d="M893.212 519.976L892.298 520.062C892.223 519.672 892.041 519.312 891.774 519.023C891.596 518.861 891.382 518.745 891.152 518.685C890.921 518.625 890.68 518.622 890.448 518.676C890.22 518.696 890.001 518.773 889.81 518.901C889.619 519.028 889.461 519.202 889.351 519.407C889.19 519.816 889.149 520.264 889.233 520.697L888.343 520.908C888.188 520.169 888.257 519.399 888.539 518.7C888.7 518.368 888.939 518.082 889.234 517.868C889.529 517.654 889.872 517.518 890.231 517.473C890.597 517.395 890.976 517.41 891.335 517.516C891.694 517.623 892.023 517.817 892.292 518.083C892.776 518.606 893.096 519.265 893.212 519.976Z" fill="#E06B00"/>
<path d="M903.061 538.92C903.061 538.92 892.048 541.957 888.631 542.265C885.213 542.574 884.547 536.629 884.422 534.252C884.297 531.874 885.19 528.557 884.889 526.464C884.821 526.043 884.798 525.615 884.821 525.188C884.909 523.324 885.927 521.206 889.642 520.09C891.71 519.435 893.929 519.491 895.963 520.25C896.373 520.404 896.738 520.663 897.023 521.003C897.308 521.343 897.503 521.752 897.59 522.19C897.631 522.374 897.668 522.596 897.715 522.814C898.354 525.365 899.49 527.757 901.055 529.847C904.966 535.212 903.061 538.92 903.061 538.92Z" fill="#FF912B"/>
<path opacity="0.4" d="M886.086 534.754L892.721 533.216C892.721 533.216 894.268 538.068 891.131 538.969C887.995 539.87 886.692 537.974 886.086 534.754Z" fill="#E65F00"/>
<path d="M886.086 534.754C886.086 534.754 887.616 536.266 889.686 535.732C891.757 535.198 892.731 533.216 892.731 533.216L886.086 534.754Z" fill="#E06B00"/>
<path opacity="0.4" d="M894.071 532.904L900.706 531.365C900.706 531.365 902.252 536.217 899.116 537.122C895.98 538.026 894.677 536.123 894.071 532.904Z" fill="#E65F00"/>
<path d="M894.071 532.904C894.071 532.904 895.601 534.415 897.671 533.881C899.742 533.347 900.716 531.365 900.716 531.365L894.071 532.904Z" fill="#E06B00"/>
<path d="M897.59 522.204C897.631 522.388 897.668 522.61 897.715 522.828C896.839 524.682 895.174 527.053 892.359 527.601C891.007 527.894 889.604 527.828 888.285 527.408C886.965 526.988 885.772 526.229 884.821 525.202C884.909 523.338 885.927 521.22 889.642 520.104C891.709 519.449 893.929 519.505 895.962 520.263C896.373 520.418 896.738 520.677 897.023 521.017C897.308 521.357 897.503 521.765 897.59 522.204Z" fill="#FC7600"/>
<path d="M892.427 528.616C892.355 528.634 892.28 528.637 892.206 528.625C892.133 528.613 892.063 528.586 892 528.545C891.937 528.505 891.882 528.452 891.839 528.39C891.797 528.328 891.766 528.257 891.75 528.183L891.639 527.677C891.622 527.603 891.619 527.527 891.631 527.452C891.643 527.377 891.669 527.306 891.708 527.241C891.747 527.177 891.798 527.121 891.858 527.077C891.918 527.033 891.986 527.001 892.058 526.984C892.13 526.966 892.205 526.964 892.279 526.976C892.352 526.989 892.422 527.016 892.485 527.056C892.548 527.096 892.602 527.149 892.645 527.211C892.688 527.273 892.719 527.343 892.735 527.417L892.847 527.923C892.864 527.997 892.866 528.073 892.854 528.148C892.843 528.223 892.816 528.295 892.777 528.359C892.738 528.423 892.687 528.479 892.627 528.523C892.567 528.568 892.499 528.599 892.427 528.616Z" fill="#E65F00"/>
<path d="M888.915 511.307C888.915 511.307 889.679 513.155 890.478 513.668C891.36 514.336 891.971 515.315 892.193 516.416C892.498 518.243 891.131 519.376 890.123 519.376C889.114 519.376 888.157 517.99 887.565 514.617C887.534 514.434 886.58 512.51 886.58 512.51L888.915 511.307Z" fill="#FFAE73"/>
<path d="M863.972 496.335C858.694 496.335 856.528 494.474 856.356 494.345L856.018 491.798C856.068 491.839 863.153 496.196 874.119 492.023L873.886 493.954C869.666 495.558 866.716 496.335 863.972 496.335Z" fill="#C3433B"/>
<path d="M863.881 582.775C863.881 582.775 863.485 584.116 863.915 585.132L858.9 588.251L852.993 589.825L851.257 588.906C851.257 588.906 860.054 584.328 860.491 577.344C860.829 571.927 863.881 582.775 863.881 582.775Z" fill="#FFAE73"/>
<path d="M859.567 589.769C856.715 590.154 857.628 590.681 853.761 591.738C849.894 592.795 848.232 591.821 847.904 591.301C847.613 590.84 849.379 589.935 851.257 588.923L851.291 588.954C853.275 589.365 855.33 589.219 857.239 588.532C859.78 587.592 862.165 585.797 863.915 585.132C864.203 585.7 864.417 586.305 864.551 586.93C864.848 588.75 862.419 589.384 859.567 589.769Z" fill="#0D458E"/>
<path d="M885.487 570.034C886.959 570.821 886.052 573.022 884.726 575.389C883.4 577.756 884.29 577.364 882.872 580.875C881.454 584.386 879.827 585.09 879.265 585.034C878.771 584.996 879.113 583.152 879.441 581.17C879.485 580.917 879.522 580.667 879.563 580.414C879.901 578.168 878.995 576.172 878.429 573.867C877.895 571.687 874.349 567.629 874.349 567.629L876.142 562.776C876.142 562.776 879.272 566.537 880.669 568.045C881.492 568.932 882.808 569.289 883.84 569.514C884.409 569.611 884.963 569.786 885.487 570.034Z" fill="#F48F4E"/>
<path d="M884.723 575.378C883.393 577.746 884.286 577.354 882.869 580.865C881.451 584.376 879.824 585.08 879.262 585.024C878.768 584.986 879.11 583.142 879.438 581.16H879.478C880.892 579.896 881.944 578.263 882.523 576.435C883.278 574.009 883.329 571.185 883.836 569.504C884.407 569.604 884.963 569.782 885.487 570.034C886.956 570.81 886.049 573.011 884.723 575.378Z" fill="#0D458E"/>
<path d="M837.842 473.695L837.967 476.219L838.129 479.535L838.265 482.287H842.738L842.883 479.535L843.059 476.219L843.188 473.695H837.842Z" fill="#1E3865"/>
<path d="M837.534 474.094H843.465L843.296 473.165H837.639L837.534 474.094Z" fill="white"/>
<path d="M839.919 473.165L838.539 472.836L838.346 473.165H839.919Z" fill="white"/>
<path d="M837.967 476.219L838.129 479.535H842.883L843.059 476.219H837.967Z" fill="white"/>
<path d="M837.967 476.218C837.967 476.218 839.178 475.279 839.368 476.565C839.462 477.182 838.112 479.213 838.112 479.213C837.649 478.766 837.3 476.523 837.967 476.218Z" fill="#FFAE73"/>
<path d="M322.314 502.733L200.74 502.684L225.256 481.993L346.83 482.038L322.314 502.733Z" fill="#E4AC83"/>
<path d="M292.441 458.622C292.279 458.622 284.717 463.128 285.306 464.556C285.894 465.984 295.5 461.374 295.5 461.374L292.441 458.622Z" fill="#F99352"/>
<path d="M293.903 445.056C293.903 445.056 293.707 442.977 297.54 441.365C301.374 439.754 303.292 442.675 303.498 443.708C303.705 444.741 305.498 450.515 300.947 451.399C296.397 452.283 293.903 445.056 293.903 445.056Z" fill="#1E3865"/>
<path d="M294.36 461.831C295.348 462.515 296.455 462.997 297.622 463.253C302.653 464.445 304.581 460.088 305.305 457.097C304.784 456.8 304.208 456.619 303.614 456.563C303.248 456.518 302.866 456.49 302.548 456.473C301.986 456.03 301.144 454.217 300.958 451.399L300.721 451.465L296.755 452.574C296.755 452.574 296.938 453.867 297.026 455.087C297.067 455.601 297.077 456.117 297.056 456.633C296.749 456.702 296.434 457.291 296.434 457.291C295.604 458.734 294.91 460.254 294.36 461.831Z" fill="#FFAE73"/>
<path d="M296.745 452.578C296.745 452.578 296.928 453.867 297.016 455.087C299.262 454.858 300.305 452.661 300.711 451.465L296.745 452.578Z" fill="#F99352"/>
<path d="M296.092 453.787C296.092 453.787 301.421 453.486 301.188 450.089C300.954 446.692 301.485 444.363 298.071 444.412C294.657 444.46 294.086 445.798 293.893 446.959C293.7 448.12 294.681 453.78 296.092 453.787Z" fill="#FFAE73"/>
<path d="M293.903 445.056C294.654 443.975 295.29 444.152 295.662 444.436C296.386 443.901 297.272 443.651 298.161 443.73C299.05 443.808 299.881 444.212 300.504 444.866C300.845 446.334 301.672 447.637 302.845 448.55C302.845 448.55 301.918 449.243 299.638 448.81C298.907 448.629 298.245 448.229 297.736 447.663C298.396 448.606 299.178 449.452 300.061 450.179C297.3 449.111 295.96 445.382 295.825 444.98C295.351 445.445 294.991 446.017 294.772 446.651C294.569 447.534 294.363 448.449 293.852 448.425C293.852 448.432 292.776 446.682 293.903 445.056Z" fill="#1E3865"/>
<path d="M306.824 472.936C307.308 470.413 308.878 460.341 307.308 457.097C306.743 455.932 304.53 455.828 302.104 455.932C301.346 456.432 298.47 458.317 297.286 458.081H297.222C296.664 457.939 296.583 456.993 297.046 456.646C296.118 456.935 295.176 457.173 294.224 457.36C293.378 457.523 290.841 459.287 290.841 459.287C291.733 460.239 292.787 461.016 293.95 461.582C293.663 464.213 294.089 465.374 296.755 471.453C299.005 476.593 296.451 481.216 296.451 481.216C296.451 481.216 309.71 492.137 309.781 486.578C309.829 482.377 306.208 476.16 306.824 472.936Z" fill="#C23B35"/>
<path d="M295.784 493.091C295.428 493.049 295.085 492.929 294.779 492.738C294.472 492.547 294.21 492.29 294.011 491.985L293.805 491.67C292.296 489.33 291.71 482.163 288.313 474.527C287.488 472.666 284.521 472.333 283.709 470.233C283.709 470.233 281.719 463.419 287.522 463.218C293.324 463.017 303.086 482.17 303.221 484.18C303.37 486.11 307.061 494.38 295.784 493.091Z" fill="#EB6600"/>
<path d="M272.712 492.921H280.975C280.975 492.921 281.283 491.569 280.741 490.651C280.261 489.84 280.444 489.375 280.799 488.703C280.361 488.899 279.886 488.992 279.408 488.973C278.971 488.922 278.551 488.771 278.18 488.529C277.842 488.945 276.302 490.713 275.812 491.063C275.287 491.462 272.878 491.319 272.712 492.921Z" fill="#AA2727"/>
<path d="M305.955 459.738C305.955 459.738 307.031 469.761 300.058 471.869C293.084 473.976 291.102 462.646 296.735 461.818C299.861 461.4 302.946 460.705 305.955 459.738Z" fill="#AA2727"/>
<path d="M283.523 465.176C283.025 468.989 281.08 481.053 277.656 486.935C276.549 488.834 280.437 489.895 280.457 489.892C280.982 489.753 281.848 488.9 282.25 488.529C285.032 485.961 290.678 478.69 290.678 472.857C290.678 470.015 290.729 464.583 288.709 463.204C287.468 462.355 283.719 463.658 283.523 465.176Z" fill="#FC7600"/>
<path d="M300.71 492.921C300.71 492.921 300.403 492.484 299.871 491.656C299.235 490.668 298.518 488.73 297.679 486.242C296.782 483.632 295.72 480.419 294.39 477.078C293.981 476.038 293.544 474.998 293.081 473.959C292.255 472.101 289.982 472.357 289.173 470.257C289.173 470.257 286.013 462.979 291.819 462.771C297.625 462.563 308.651 482.26 309.287 484.166C309.981 486.252 313.365 494.921 300.71 492.921Z" fill="#FF912B"/>
<path d="M278.779 492.921H287.038C287.038 492.921 287.349 491.569 286.804 490.651C286.324 489.84 286.51 489.375 286.865 488.703C286.427 488.899 285.952 488.991 285.475 488.973C285.037 488.924 284.617 488.772 284.246 488.529C283.888 488.945 282.365 490.713 281.878 491.063C281.35 491.462 278.945 491.319 278.779 492.921Z" fill="#C23B35"/>
<path d="M297.679 486.242C296.782 483.632 295.72 480.419 294.39 477.078C294.728 474.548 295.486 472.333 296.759 471.439C296.745 471.439 299.814 481.126 297.679 486.242Z" fill="#FC7600"/>
<path d="M288.344 464.902C287.847 468.715 287.146 481.053 283.719 486.935C282.613 488.834 286.504 489.895 286.524 489.892C287.045 489.753 287.914 488.9 288.314 488.529C291.095 485.961 296.745 478.69 296.745 472.857C296.745 470.014 293.487 464.812 291.47 463.433C291.183 463.24 290.852 463.124 290.509 463.098C290.167 463.071 289.823 463.135 289.51 463.282C289.198 463.428 288.927 463.654 288.723 463.938C288.519 464.221 288.389 464.553 288.344 464.902Z" fill="#FF912B"/>
<path d="M305.305 457.097C305.305 457.097 293.581 461.523 291.819 461.433C290.678 461.374 281.215 457.967 281.215 457.967L280.362 459.613C280.362 459.613 289.579 465.682 292.11 465.651C297.11 465.592 305.549 462.448 306.499 461.838C307.45 461.228 308.073 457.738 305.305 457.097Z" fill="#FFAE73"/>
<path d="M281.205 457.964C281.205 457.964 280.352 456.626 279.513 456.577C278.674 456.529 277.206 457.17 276.708 457.27C276.211 457.371 274.783 457.842 275.206 458.553C275.629 459.263 277.592 459.419 278.437 459.246C279.283 459.073 280.359 459.593 280.359 459.593L281.205 457.964Z" fill="#FFAE73"/>
<path d="M279.746 456.626C279.746 456.626 278.393 455.995 278.017 455.877C277.642 455.759 277.71 455.877 277.825 456.251C277.94 456.626 278.633 456.983 278.633 457.097C278.633 457.211 279.746 456.626 279.746 456.626Z" fill="#FFAE73"/>
<path d="M295.077 451.846C295.077 451.846 295.578 451.645 296.999 451.76C296.999 451.76 296.921 452.327 295.876 452.383C295.705 452.388 295.537 452.339 295.394 452.243C295.251 452.147 295.14 452.009 295.077 451.846Z" fill="white"/>
<path d="M299.266 459.281C299.266 459.281 300.314 462.681 303.914 463.44C303.914 463.44 309.863 461.565 306.902 457.412C306.919 457.426 303.975 455.198 299.266 459.281Z" fill="#C23B35"/>
<path d="M301.414 441.573C301.414 441.573 302.767 439.594 306.283 440.624C309.798 441.653 308.012 446.065 309.179 447.299C310.346 448.533 311.913 451.08 309.179 452.117C306.445 453.153 304.188 453.357 304.872 449.486C305.555 445.614 305.116 441.611 301.827 442.478L301.414 441.573Z" fill="#1E3865"/>
<path d="M245.438 485.92C245.729 485.226 250.175 473.318 253.599 473.318C255.44 473.318 257.084 473.751 256.699 476.86C256.313 479.969 252.919 496.816 250.788 496.577C248.656 496.338 245.438 485.92 245.438 485.92Z" fill="#122E54"/>
<path d="M257.893 494.13C257.782 494.849 257.765 495.58 257.842 496.304C257.856 496.384 257.898 496.457 257.96 496.509C258.022 496.561 258.1 496.589 258.18 496.588H263.719C263.78 496.59 263.841 496.575 263.894 496.545C263.948 496.515 263.992 496.47 264.023 496.416C264.054 496.362 264.07 496.301 264.07 496.238C264.069 496.176 264.052 496.114 264.02 496.061C263.733 495.541 263.242 494.796 262.69 494.564C262.148 494.32 261.626 494.03 261.131 493.697C261.069 493.654 260.995 493.634 260.921 493.638L258.214 493.825C258.134 493.829 258.058 493.862 257.999 493.917C257.94 493.973 257.902 494.049 257.893 494.13Z" fill="#122E54"/>
<path d="M259.479 475.432C259.479 475.432 261.202 492.415 261.394 493.832C261.394 493.832 258.732 494.38 257.933 493.832C257.135 493.285 253.792 484.169 253.873 482.533C253.954 480.898 259.479 475.432 259.479 475.432Z" fill="#1E3865"/>
<path d="M248.199 485.92C248.49 485.226 252.919 473.318 256.357 473.318C258.201 473.318 259.845 473.751 259.459 476.86C259.074 479.969 255.68 496.816 253.548 496.577C251.417 496.338 248.199 485.92 248.199 485.92Z" fill="#1E3865"/>
<path d="M235.112 488.373C235.112 488.373 233.789 496.144 239.409 496.577C245.029 497.011 252.679 496.924 253.548 496.577C254.418 496.231 257.182 489.493 251.975 488.152C246.768 486.81 235.112 488.373 235.112 488.373Z" fill="#1E3865"/>
<path d="M251.193 477.73C251.65 475.331 253.142 465.765 251.65 462.684C251.116 461.578 249.015 461.478 246.71 461.575C245.99 462.05 243.256 463.842 242.136 463.62C242.136 463.62 232.08 469.654 234.615 475.428C235.772 478.069 235.356 482.066 234.73 485.171C234.468 486.453 234.705 487.79 235.39 488.895C236.076 490.001 237.156 490.789 238.401 491.091C244.44 492.553 251.934 491.753 251.975 488.152C252.029 484.176 250.612 480.79 251.193 477.73Z" fill="white"/>
<path d="M248.385 467.633C248.385 467.633 253.646 476.468 257.28 478.253C257.28 478.253 258.948 475.574 255.825 471.037C252.703 466.5 251.512 461.748 250.557 462.157C249.603 462.566 248.385 467.633 248.385 467.633Z" fill="#FFAE73"/>
<path d="M256.357 473.335C256.357 473.335 259.24 473.286 259.967 474.028C260.695 474.77 259.676 478.565 257.281 478.267L256.357 473.335Z" fill="#FFAE73"/>
<path d="M250.321 461.783C250.321 461.783 251.738 461.807 253.055 464.902C253.055 464.902 251.701 470.375 248.852 469.89C246.003 469.405 250.321 461.783 250.321 461.783Z" fill="white"/>
<path d="M245.361 447.545C245.361 447.545 241.957 446.883 240.262 448.148C237.193 450.446 237.027 458.362 235.863 459.54C234.699 460.719 231.942 460.234 231.695 466.316C231.448 472.399 232.798 472.929 231.191 475.654C229.584 478.378 231.867 481.102 231.867 481.102C231.867 481.102 230.93 479.598 231.333 478.513C231.333 478.513 233.332 481.466 234.693 482.298C238.381 484.551 242.474 483.757 244.505 482.364C244.803 482.164 245.14 482.032 245.492 481.979C246.508 481.809 248.598 480.457 247.827 471.896C247.404 467.2 250.321 462.507 249.103 460.459C249.436 461.021 249.644 461.652 249.712 462.306C249.916 461.845 249.975 461.329 249.879 460.832C249.783 460.335 249.538 459.881 249.177 459.534C247.912 458.199 250.662 455.437 250.256 452.234C249.999 450.047 248.494 447.639 245.361 447.545Z" fill="#1E3865"/>
</svg>
